<svg viewBox="0 0 1125 1254" xmlns="http://www.w3.org/2000/svg" xmlns:xlink="http://www.w3.org/1999/xlink"><clipPath id="a"><path d="m0 0h1125v1254h-1125z"/></clipPath><radialGradient id="b" cx="588.3" cy="590" gradientUnits="userSpaceOnUse" r="544.72"><stop offset="0" stop-color="#ffc629"/><stop offset="1" stop-color="#ffc629" stop-opacity="0"/></radialGradient><g clip-path="url(#a)"><path d="m1383.27-276.57h-1598.09v1601.27h1601.27v-1601.27h-3.19zm-161.25 3.19v156.46h-156.46v-156.46zm-638.59 798.24v156.46h-156.46v-156.46zm-156.46-3.19v-156.46h156.46v156.46zm159.65 3.19h156.46v156.46h-156.46zm0-3.19v-156.46h156.46v156.46zm0-159.65v-156.46h156.46v156.46zm-3.19 0h-156.46v-156.46h156.46zm-159.65 0h-156.46v-156.46h156.46zm0 3.19v156.46h-156.46v-156.46zm0 159.65v156.46h-156.46v-156.46zm0 159.65v156.46h-156.46v-156.46zm3.19 0h156.46v156.46h-156.46zm159.65 0h156.46v156.46h-156.46zm159.65 0h156.46v156.46h-156.46zm0-3.19v-156.46h156.46v156.46zm0-159.65v-156.46h156.46v156.46zm0-159.65v-156.46h156.46v156.46zm0-159.65v-156.45h156.46v156.46h-156.46zm-3.19 0h-156.46v-156.45h156.46v156.46zm-159.65 0h-156.46v-156.45h156.46v156.46zm-159.65 0h-156.46v-156.45h156.46v156.46zm-159.65 0h-156.46v-156.45h156.46v156.46zm0 3.19v156.46h-156.46v-156.46zm0 159.65v156.46h-156.46v-156.46zm0 159.65v156.46h-156.46v-156.46zm0 159.65v156.46h-156.46v-156.46zm0 159.65v156.46h-156.46v-156.46zm3.19 0h156.46v156.46h-156.46zm159.65 0h156.46v156.46h-156.46zm159.65 0h156.46v156.46h-156.46zm159.65 0h156.46v156.46h-156.46zm159.65 0h156.46v156.46h-156.46zm0-3.19v-156.46h156.46v156.46zm0-159.65v-156.46h156.46v156.46zm0-159.65v-156.46h156.46v156.46zm0-159.65v-156.46h156.46v156.46zm0-159.65v-156.45h156.46v156.46h-156.46zm0-159.65v-156.44h156.46v156.45h-156.46zm-3.19 0h-156.46v-156.44h156.46v156.45zm-159.65 0h-156.46v-156.44h156.46v156.45zm-159.65 0h-156.46v-156.44h156.46v156.45zm-159.65 0h-156.46v-156.44h156.46v156.45zm-159.65 0h-156.46v-156.44h156.46v156.45zm-159.65 0h-156.45v-156.44h156.45v156.45zm0 3.19v156.46h-156.45v-156.45h156.45zm0 159.65v156.46h-156.45v-156.46h156.45zm0 159.65v156.46h-156.45v-156.46h156.45zm0 159.65v156.46h-156.45v-156.46h156.45zm0 159.65v156.46h-156.45v-156.46h156.45zm0 159.65v156.46h-156.45v-156.46h156.45zm0 159.65v156.46h-156.45v-156.46h156.45zm3.19 0h156.46v156.46h-156.46v-156.46zm159.65 0h156.46v156.46h-156.46zm159.65 0h156.46v156.46h-156.46zm159.65 0h156.46v156.46h-156.46zm159.65 0h156.46v156.46h-156.46zm159.65 0h156.46v156.46h-156.46zm159.65 0h156.46v156.46h-156.46zm0-3.19v-156.46h156.46v156.46zm0-159.65v-156.46h156.46v156.46zm0-159.65v-156.46h156.46v156.46zm0-159.65v-156.46h156.46v156.46zm0-159.65v-156.46h156.46v156.46zm0-159.65v-156.45h156.46v156.46h-156.46zm0-159.65v-156.44h156.46v156.45h-156.46zm-3.19-316.1v156.46h-156.46v-156.46zm-159.65 0v156.46h-156.46v-156.46zm-159.65 0v156.46h-156.46v-156.46zm-159.65 0v156.46h-156.46v-156.46zm-159.65 0v156.46h-156.46v-156.46zm-159.65 0v156.46h-156.46v-156.46zm-159.65 0v156.46h-156.45v-156.46zm-316.1 0h156.45v156.46h-156.46v-156.46zm0 159.65h156.45v156.46h-156.46v-156.45zm0 159.65h156.45v156.46h-156.46v-156.46zm0 159.65h156.45v156.46h-156.46v-156.46zm0 159.65h156.45v156.46h-156.46v-156.46zm0 159.65h156.45v156.46h-156.46v-156.46zm0 159.65h156.45v156.46h-156.46v-156.46zm0 159.65h156.45v156.46h-156.46v-156.46zm0 159.65h156.45v156.46h-156.46v-156.46zm0 317.7v-158.05h156.45v158.05h-156.46zm159.65 0v-158.05h156.45v158.05zm159.65 0v-158.05h156.46v158.05h-156.47zm159.65 0v-158.05h156.46v158.05zm159.65 0v-158.05h156.46v158.05zm159.65 0v-158.05h156.46v158.05zm159.65 0v-158.05h156.46v158.05zm159.65 0v-158.05h156.46v158.05zm159.65 0v-158.05h156.46v158.05zm317.7 0h-158.05v-158.05h158.05zm0-161.24h-158.05v-156.46h158.05zm0-159.65h-158.05v-156.46h158.05zm0-159.65h-158.05v-156.46h158.05zm0-159.65h-158.05v-156.46h158.05zm0-159.65h-158.05v-156.46h158.05zm0-159.65h-158.05v-156.46h158.05zm0-159.65h-158.05v-156.46h158.05zm0-159.65h-158.05v-156.45h158.05v156.45zm0-159.65h-158.05v-156.46h158.05v156.46z" fill="url(#b)"/></g><path d="m337.58 475.92c-.91 0-1.64-.74-1.63-1.65l.16-27.58c0-.9.74-1.63 1.64-1.63.91 0 1.64.74 1.63 1.65l-.16 27.58c0 .9-.74 1.63-1.64 1.63z" fill="#0e2947"/><path d="m326.46 469.9c-.52 0-1.02-.24-1.34-.7-.52-.74-.34-1.76.41-2.28l22.78-15.88c.73-.51 1.76-.34 2.28.41.52.74.34 1.76-.41 2.28l-22.78 15.88c-.28.2-.61.29-.94.29z" fill="#0e2947"/><path d="m346.46 471.06c-.44 0-.87-.17-1.19-.51l-17.22-18.2c-.62-.66-.59-1.7.06-2.32.66-.62 1.69-.59 2.32.06l17.22 18.2c.62.66.59 1.7-.06 2.32-.32.3-.72.45-1.13.45z" fill="#0e2947"/><path d="m323.34 461.84c-.9 0-1.63-.72-1.64-1.62 0-.91.72-1.65 1.62-1.65l26.53-.25c.91 0 1.64.72 1.65 1.62 0 .91-.72 1.65-1.62 1.65l-26.53.25h-.02z" fill="#0e2947"/><path d="m355.98 768.02h-.05c-6.25-.03-11.31-5.13-11.28-11.38.03-6.22 5.11-11.28 11.33-11.28 3.08.01 5.92 1.2 8.05 3.35s3.3 5 3.28 8.02c-.03 6.22-5.11 11.29-11.33 11.29zm.04-19.39c-4.46 0-8.07 3.6-8.09 8.02-.02 4.44 3.58 8.07 8.02 8.09l.04 1.64v-1.64c4.42 0 8.03-3.6 8.06-8.02 0-2.15-.82-4.18-2.34-5.7-1.51-1.53-3.53-2.37-5.68-2.38z" fill="#0e2947"/><path d="m756.94 772.67c-.91 0-1.64-.74-1.63-1.65l.16-27.58c0-.9.74-1.63 1.64-1.63.91 0 1.64.74 1.63 1.65l-.16 27.58c0 .9-.74 1.63-1.64 1.63z" fill="#0e2947"/><path d="m745.82 766.65c-.52 0-1.02-.24-1.34-.7-.52-.74-.34-1.76.41-2.28l22.78-15.88c.73-.51 1.76-.34 2.28.41.52.74.34 1.76-.41 2.28l-22.78 15.88c-.28.2-.61.29-.94.29z" fill="#0e2947"/><path d="m765.82 767.81c-.44 0-.87-.17-1.19-.51l-17.22-18.2c-.62-.66-.59-1.7.06-2.32.66-.62 1.69-.59 2.32.06l17.22 18.2c.62.66.59 1.7-.06 2.32-.32.3-.72.45-1.13.45z" fill="#0e2947"/><path d="m742.71 758.59c-.9 0-1.63-.72-1.64-1.62 0-.91.72-1.65 1.62-1.65l26.53-.25c.91 0 1.64.72 1.65 1.62 0 .91-.72 1.65-1.62 1.65l-26.53.25h-.02z" fill="#0e2947"/><path d="m199.64 581.81c-1.17 0-2.05-.83-2.15-2.02 0-.27.32-6.78.96-14.75-10.34-3.13-12.07-5.11-12.36-6.79-.08-.48-.12-1.7 1.24-2.67 2.52-1.8 8.64-4.18 12.63-5.63 2.01-15.93 4.01-17.27 6.04-17.27.39 0 .99.1 1.6.59 2.06 1.64 6.64 6.62 10.47 11.02 4.31-1.13 9.73-2.35 12.99-2.35 1.77 0 2.86.35 3.52 1.13.45.53.63 1.21.51 1.92-.1.63-.41 2.49-7.47 10.79 9.3 11.82 8.83 13.61 8.57 14.58-.18.66-.63 1.18-1.26 1.42-.42.16-.95.24-1.73.24-2.95 0-9.93-1.08-17.95-2.76-12.37 12.57-14.8 12.57-15.61 12.57zm2.02-15.84c-.4 5.08-.67 9.48-.8 11.87 1.73-1.17 5.08-3.93 10.59-9.42-3.49-.79-6.81-1.62-9.79-2.44zm16.29.48c6.31 1.27 11.97 2.14 14.68 2.26-.64-1.33-2.39-4.28-7.19-10.42-2.33 2.65-4.9 5.45-7.49 8.16zm-16.02-3.81c3.64 1.03 7.82 2.06 12.23 3.02 3.17-3.27 6.38-6.75 9.2-9.98-1.99-2.48-4.19-5.11-6.43-7.71-4.49 1.23-9.38 2.77-13.97 4.38-.36 3.07-.71 6.52-1.03 10.29zm-12.25-4.7c.79.6 3 1.88 9.04 3.75.25-2.89.52-5.6.8-8.09-4.59 1.71-8.12 3.27-9.84 4.34zm30.78-10.9c1.76 2.06 3.47 4.13 5.07 6.1 3.58-4.24 5.3-6.72 5.97-7.93-.13 0-.28-.01-.45-.01-2.1 0-5.81.65-10.59 1.84zm-14.34-10.74c-.53 1.03-1.56 3.98-2.7 12.42 3.69-1.26 7.51-2.46 11.13-3.49-3.61-4.09-6.76-7.43-8.43-8.93z" fill="#0e2947"/><path d="m863.16 469.32c-1.21 0-2.36 0-5.55-12.72-10.78-2.07-11.69-3.3-12.04-3.77-.3-.41-.44-1.16-.3-1.65.2-.69.65-2.29 12.96-7.26 4.42-11.53 5.92-11.53 6.92-11.53.52 0 1.23.37 1.54.79.79 1.06 1.51 3.82 2.6 8.24.34 1.38.75 3.05.99 3.79.65.29 2.07.8 3.25 1.22 6.33 2.27 7.97 3.04 8.26 4.55.11.57-.18 1.39-.61 1.78-1.29 1.15-7.4 3.42-10.62 4.57-5.21 11.86-6.33 11.92-7.31 11.97-.03 0-.07 0-.09 0zm-13.42-17.89c2.15.62 6.08 1.51 9.51 2.15.63.12 1.14.6 1.29 1.22.88 3.55 2.02 7.59 2.85 9.9 1.19-2.15 3-5.95 4.47-9.31.18-.42.53-.74.96-.89 2.93-1.03 6.23-2.29 8.29-3.2-1.44-.61-3.41-1.31-4.68-1.77-3.61-1.3-4.29-1.58-4.76-2.2-.41-.55-.66-1.46-1.56-5.11-.34-1.37-.86-3.49-1.32-5.07-1.07 2.05-2.57 5.53-3.74 8.62-.16.43-.5.77-.93.94-3.8 1.52-8.12 3.45-10.38 4.72z" fill="#0e2947"/><path d="m555.23 845.15s-15.52-100.87-12.19-141.88c2.41-29.75-87.56-82.02-87.56-82.02s14.41 9.98-39.9-27.71c-68.95-47.84-36.58 8.87-36.58 8.87s-36.58-29.93-58.75-86.46c-12.67-32.32-37.69 33.25-7.76 69.83s-13.62-60.55-24.39-41.01c-29.93 54.31 27.71 97.54 27.71 97.54s-39.1-79.66-43.23-59.85c-5.54 26.6 5.54 95.32 72.05 125.25 66.5 29.93 73.16 13.3 76.48 39.9 3.33 26.6 4.43 100.87 4.43 100.87l129.68-3.33z" fill="#e58f4e"/><path d="m365.69 648.38c-.28 0-.57-.07-.83-.23-62.09-36.59-68.36-109.18-68.42-109.91-.07-.9.6-1.69 1.51-1.76s1.69.61 1.76 1.51c.05.71 6.23 71.64 66.81 107.34.78.46 1.04 1.46.58 2.24-.31.52-.85.81-1.41.81z" fill="#0e2947"/><path d="m360.15 676.09c-.12 0-.25-.01-.38-.04-61.21-14.47-83.02-94.03-83.23-94.84-.23-.87.29-1.77 1.16-2 .88-.24 1.77.29 2.01 1.16.21.78 21.53 78.47 80.82 92.49.88.21 1.43 1.09 1.22 1.97-.18.75-.85 1.26-1.59 1.26z" fill="#0e2947"/><path d="m428.88 651.71c-.13 0-.26-.02-.39-.05-4.62-1.1-53.82-46.37-57.97-67.17-1.12-5.61 1.06-8.54 3.08-10.02 12.82-9.34 75.76 39.85 82.89 45.48.71.56.83 1.59.27 2.3s-1.59.83-2.3.27c-26.19-20.7-70.79-51.34-78.93-45.4-1.65 1.2-2.29 3.08-1.95 5.75 2.47 19.59 51.54 63.95 55.76 65.62.88.21 1.38 1.08 1.17 1.96-.18.75-.88 1.25-1.62 1.25z" fill="#0e2947"/><path d="m392.3 616.79c-.54 0-1.06-.26-1.38-.75-.49-.76-.28-1.77.48-2.27 1.4-.91 2.21-2.2 2.5-3.94 1.22-7.59-8.07-21.2-11.75-25.8-.56-.71-.45-1.74.26-2.3s1.74-.45 2.3.26c.58.72 14.13 17.81 12.43 28.37-.43 2.67-1.76 4.75-3.95 6.17-.28.18-.59.26-.89.26z" fill="#0e2947"/><path d="m405.6 631.2c-.53 0-1.05-.26-1.36-.73-.5-.75-.3-1.77.45-2.27.06-.04 6.16-4.23 8.19-12.34.22-.88 1.1-1.42 1.99-1.19.88.22 1.41 1.11 1.19 1.99-2.34 9.37-9.25 14.07-9.55 14.27s-.59.28-.91.28z" fill="#0e2947"/><path d="m417.79 640.07c-.27 0-.54-.07-.79-.21-.79-.44-1.08-1.44-.64-2.23.05-.09 5.21-9.5 3.72-15.44-.22-.88.31-1.77 1.19-1.99.87-.22 1.77.31 1.99 1.19 1.8 7.2-3.8 17.39-4.04 17.82-.3.54-.86.84-1.43.84z" fill="#0e2947"/><path d="m309.16 572.46c-.84 0-1.55-.64-1.63-1.48-.09-.9.57-1.7 1.48-1.79.96-.09 1.69-.54 2.29-1.42 4.23-6.16-.44-27.57-2.6-35.3-.24-.87.27-1.77 1.14-2.02.87-.24 1.78.27 2.02 1.14.84 3 8.01 29.51 2.15 38.04-1.14 1.67-2.76 2.64-4.68 2.83-.05 0-.11 0-.16 0z" fill="#0e2947"/><path d="m290.32 607.92c-.37 0-.75-.13-1.05-.38-.69-.58-.78-1.62-.2-2.31 10.78-12.84-1.16-34.5-1.28-34.72-.44-.79-.16-1.79.63-2.23s1.79-.16 2.23.63c.54.97 13.16 23.88.93 38.43-.32.39-.79.58-1.26.58z" fill="#0e2947"/><path d="m328.56 611.25c-.56 0-1.1-.28-1.41-.8-.46-.77-.22-1.76.53-2.23.12-.08 2.85-2.03 8.93-11.16.5-.75 1.52-.96 2.27-.45.75.5.96 1.52.45 2.27-6.66 9.99-9.63 11.95-9.94 12.13-.26.16-.56.23-.84.23z" fill="#0e2947"/><path d="m305.84 638.96c-.56 0-1.1-.28-1.41-.8-.46-.77-.22-1.76.53-2.23.11-.08 2.84-2.03 8.93-11.16.5-.75 1.52-.96 2.27-.45.75.5.96 1.52.45 2.27-6.66 9.99-9.63 11.95-9.94 12.13-.26.16-.56.23-.84.23z" fill="#0e2947"/><path d="m334.1 621.78c-.56 0-1.1-.28-1.41-.8-.47-.78-.21-1.78.56-2.25 4.22-2.53 9.79-11.99 11.58-15.43.42-.8 1.4-1.12 2.21-.69.8.42 1.11 1.41.69 2.21-.28.54-6.93 13.2-12.8 16.72-.26.16-.56.23-.84.23z" fill="#0e2947"/><path d="m313.04 647.27c-.56 0-1.1-.28-1.41-.8-.47-.78-.21-1.78.56-2.25 4.22-2.53 9.79-11.99 11.58-15.42.42-.8 1.41-1.11 2.21-.69s1.11 1.41.69 2.21c-.28.54-6.93 13.2-12.8 16.72-.26.16-.56.23-.84.23z" fill="#0e2947"/><path d="m300.85 673.88c-.56 0-1.1-.28-1.41-.8-.47-.78-.21-1.78.56-2.25 4.22-2.53 9.79-11.99 11.58-15.43.42-.8 1.4-1.11 2.21-.69.8.42 1.11 1.41.69 2.21-.28.54-6.93 13.2-12.8 16.72-.26.16-.56.23-.84.23z" fill="#0e2947"/><path d="m276.46 628.99c-.75 0-1.43-.52-1.6-1.29-.19-.88.36-1.75 1.24-1.95.16-.04 2.92-.74 4.54-3.91 2.06-4.01 1.43-10.33-1.82-18.26-.34-.84.06-1.8.89-2.14.84-.35 1.79.06 2.14.89 3.71 9.03 4.26 16.13 1.65 21.1-2.38 4.53-6.52 5.48-6.7 5.51-.12.03-.24.04-.35.04z" fill="#0e2947"/><path d="m295.86 665.01c-.21 0-.42-.04-.62-.12-.84-.34-1.24-1.3-.89-2.14.16-.4 4.1-9.88 8.85-13.43.72-.55 1.75-.4 2.29.33.54.72.4 1.75-.33 2.29-3.34 2.51-6.75 9.56-7.78 12.06-.26.63-.87 1.01-1.52 1.01z" fill="#0e2947"/><path d="m437.9 802.06c-.59 0-1.16-.32-1.45-.87-.18-.34-4.39-8.43-1.31-14.1.43-.8 1.43-1.09 2.22-.66.8.43 1.09 1.43.66 2.22-1.87 3.44.32 9.11 1.33 11.01.42.8.12 1.79-.68 2.21-.24.13-.51.19-.76.19z" fill="#0e2947"/><path d="m440.08 782.02c-.59 0-1.16-.32-1.45-.87-.18-.34-4.39-8.43-1.31-14.1.43-.79 1.42-1.09 2.22-.66s1.09 1.43.66 2.22c-1.87 3.44.32 9.11 1.33 11.01.42.8.12 1.79-.68 2.21-.24.13-.51.19-.76.19z" fill="#0e2947"/><path d="m449.57 818.06c-.59 0-1.16-.32-1.45-.87-.18-.34-4.39-8.43-1.31-14.1.43-.8 1.43-1.09 2.22-.66.8.43 1.09 1.43.66 2.22-1.87 3.44.32 9.11 1.33 11.01.42.8.12 1.79-.68 2.21-.24.13-.51.19-.76.19z" fill="#0e2947"/><path d="m437.65 826.06c-.59 0-1.16-.32-1.45-.87-.18-.34-4.39-8.43-1.31-14.1.43-.8 1.43-1.09 2.22-.66.8.43 1.09 1.43.66 2.22-1.86 3.43.33 9.11 1.33 11.01.42.8.11 1.79-.69 2.21-.24.13-.51.19-.76.19z" fill="#0e2947"/><path d="m445.73 838.8c-.59 0-1.16-.32-1.45-.87-.18-.34-4.39-8.43-1.31-14.1.43-.8 1.43-1.09 2.22-.66.8.43 1.09 1.43.66 2.22-1.87 3.44.32 9.11 1.33 11.01.42.8.12 1.79-.68 2.21-.24.13-.51.19-.76.19z" fill="#0e2947"/><path d="m447.83 797.85c-.59 0-1.16-.32-1.45-.87-.18-.34-4.39-8.43-1.31-14.1.43-.8 1.43-1.09 2.22-.66s1.09 1.43.66 2.22c-1.87 3.44.32 9.11 1.33 11.01.42.8.12 1.79-.68 2.21-.24.13-.51.19-.76.19z" fill="#0e2947"/><path d="m581.3 845.35s15.52-100.87 12.19-141.88c-2.41-29.75 87.56-82.02 87.56-82.02s-14.41 9.98 39.9-27.71c68.95-47.84 36.58 8.87 36.58 8.87s36.58-29.93 58.75-86.46c12.67-32.32 37.69 33.25 7.76 69.83s13.62-60.55 24.39-41.01c29.93 54.31-27.71 97.54-27.71 97.54s39.1-79.66 43.23-59.85c5.54 26.6-5.54 95.32-72.05 125.25-66.5 29.93-73.16 13.3-76.48 39.9-3.33 26.6-4.43 100.87-4.43 100.87l-129.68-3.33z" fill="#e58f4e"/><g fill="#0e2947"><path d="m770.84 648.59c-.56 0-1.11-.29-1.41-.81-.46-.78-.2-1.78.58-2.24 60.63-35.73 66.76-106.63 66.81-107.34.07-.9.84-1.58 1.76-1.51.9.07 1.58.86 1.51 1.76-.06.73-6.33 73.32-68.42 109.91-.26.15-.55.23-.83.23z"/><path d="m776.38 676.3c-.74 0-1.41-.51-1.59-1.26-.21-.88.34-1.76 1.22-1.97 59.32-14.02 80.61-91.7 80.82-92.49.23-.87 1.13-1.39 2.01-1.16s1.4 1.13 1.16 2.01c-.21.8-22.02 80.37-83.23 94.84-.13.03-.25.04-.38.04z"/><path d="m707.66 651.91c-.74 0-1.41-.51-1.59-1.26-.21-.88.33-1.76 1.21-1.97 4.14-1.65 53.21-46 55.68-65.59.34-2.67-.3-4.55-1.95-5.75-8.16-5.92-52.74 24.71-78.93 45.41-.71.56-1.74.44-2.3-.27s-.44-1.74.27-2.3c7.13-5.64 70.07-54.83 82.89-45.49 2.02 1.47 4.2 4.4 3.08 10.02-4.15 20.79-53.36 66.06-57.98 67.17-.13.03-.26.04-.38.04z"/><path d="m744.24 617c-.31 0-.62-.08-.89-.26-2.19-1.42-3.52-3.5-3.95-6.17-1.7-10.56 11.85-27.65 12.43-28.37.57-.7 1.6-.82 2.3-.26.71.56.82 1.6.26 2.3-3.68 4.61-12.97 18.22-11.75 25.81.28 1.74 1.1 3.03 2.5 3.94.76.49.97 1.51.48 2.27-.32.48-.84.75-1.38.75z"/><path d="m730.94 631.41c-.31 0-.63-.09-.91-.28-.29-.2-7.2-4.89-9.55-14.27-.22-.88.31-1.77 1.19-1.99.87-.23 1.77.31 1.99 1.19 2.04 8.16 8.13 12.29 8.19 12.33.75.5.96 1.52.45 2.27-.32.47-.84.73-1.37.73z"/><path d="m718.75 640.27c-.58 0-1.13-.3-1.43-.84-.24-.43-5.84-10.62-4.04-17.82.22-.88 1.11-1.42 1.99-1.19.88.22 1.41 1.11 1.19 1.99-1.48 5.94 3.67 15.34 3.72 15.43.44.79.15 1.79-.64 2.23-.25.14-.52.21-.79.21z"/><path d="m827.37 572.66c-.05 0-.1 0-.16 0-1.92-.18-3.54-1.16-4.68-2.83-5.86-8.53 1.31-35.05 2.15-38.04.24-.87 1.16-1.38 2.02-1.14.87.24 1.38 1.15 1.14 2.02-2.16 7.73-6.84 29.15-2.61 35.31.6.88 1.33 1.33 2.29 1.42.9.08 1.56.89 1.48 1.79-.08.85-.79 1.48-1.63 1.48z"/><path d="m846.22 608.13c-.47 0-.93-.2-1.26-.58-12.23-14.56.39-37.47.93-38.43.44-.79 1.44-1.08 2.23-.63.79.44 1.07 1.44.63 2.23-.12.22-12.05 21.9-1.28 34.72.58.69.49 1.73-.2 2.31-.31.26-.68.38-1.05.38z"/><path d="m807.96 611.45c-.28 0-.57-.08-.83-.23-.32-.19-3.28-2.14-9.94-12.14-.5-.75-.3-1.77.45-2.27s1.77-.3 2.27.45c6.19 9.28 8.91 11.15 8.94 11.16.74.49.97 1.5.49 2.25-.31.49-.84.77-1.39.77z"/><path d="m830.68 639.16c-.28 0-.57-.08-.83-.23-.32-.19-3.28-2.14-9.94-12.14-.5-.75-.3-1.77.45-2.27s1.77-.3 2.27.45c6.19 9.28 8.91 11.15 8.93 11.16.74.49.97 1.5.49 2.25-.31.49-.84.77-1.39.77z"/><path d="m802.43 621.98c-.29 0-.58-.08-.84-.23-5.87-3.52-12.52-16.18-12.8-16.72-.42-.8-.11-1.79.69-2.21.81-.42 1.79-.11 2.21.69 1.79 3.43 7.37 12.9 11.58 15.42.78.47 1.03 1.47.56 2.25-.31.51-.85.8-1.41.8z"/><path d="m823.49 647.48c-.29 0-.58-.08-.84-.23-5.87-3.52-12.52-16.18-12.8-16.72-.42-.8-.11-1.79.69-2.21.81-.42 1.79-.11 2.21.69 1.79 3.43 7.37 12.9 11.58 15.43.78.47 1.03 1.47.56 2.25-.31.51-.85.8-1.41.8z"/><path d="m835.69 674.08c-.29 0-.58-.08-.84-.23-5.87-3.52-12.52-16.18-12.8-16.72-.42-.8-.11-1.79.69-2.21.81-.42 1.79-.11 2.21.69 1.79 3.43 7.37 12.9 11.58 15.43.78.47 1.03 1.47.56 2.25-.31.51-.85.8-1.41.8z"/><path d="m860.07 629.19c-.12 0-.23-.01-.35-.04-.18-.04-4.32-.99-6.7-5.51-2.61-4.97-2.05-12.06 1.65-21.1.34-.84 1.3-1.24 2.14-.89.84.34 1.24 1.3.89 2.14-3.27 7.98-3.89 14.32-1.78 18.33 1.65 3.14 4.47 3.83 4.49 3.83.89.19 1.45 1.07 1.25 1.95-.17.77-.85 1.29-1.6 1.29z"/><path d="m840.67 665.21c-.64 0-1.25-.38-1.52-1.01-.04-.09-3.76-9.05-7.78-12.06-.72-.54-.87-1.57-.33-2.29s1.57-.87 2.29-.33c4.74 3.55 8.68 13.03 8.85 13.43.34.84-.05 1.79-.89 2.14-.2.08-.42.12-.62.12z"/><path d="m696.38 816.17c-.34 0-.69-.11-.99-.33-.72-.55-.86-1.57-.32-2.29 2.35-3.11 1.04-9.05.34-11.08-.3-.85.16-1.79 1.01-2.09.86-.28 1.79.16 2.09 1.01.13.36 3.07 8.99-.83 14.14-.32.43-.81.65-1.31.65z"/><path d="m691.21 835.66c-.34 0-.69-.11-.99-.33-.72-.55-.86-1.57-.32-2.29 2.35-3.11 1.04-9.05.34-11.08-.3-.85.16-1.79 1.01-2.09.86-.28 1.79.16 2.09 1.01.13.36 3.07 8.99-.83 14.14-.32.43-.81.65-1.31.65z"/><path d="m687.25 798.6c-.34 0-.69-.11-.99-.33-.72-.55-.86-1.57-.32-2.3 2.35-3.11 1.05-9.05.34-11.08-.3-.85.16-1.79 1.01-2.09.86-.28 1.79.16 2.09 1.01.13.36 3.07 8.99-.82 14.14-.32.43-.81.65-1.31.65z"/><path d="m700.23 792.48c-.34 0-.69-.11-.99-.33-.72-.55-.86-1.57-.32-2.3 2.36-3.12 1.05-9.06.34-11.08-.3-.85.15-1.79 1.01-2.09.85-.29 1.79.15 2.09 1.01.13.36 3.07 8.99-.82 14.14-.32.43-.81.65-1.31.65z"/><path d="m694.16 778.67c-.34 0-.69-.11-.99-.33-.72-.55-.86-1.57-.32-2.29 2.35-3.11 1.04-9.05.34-11.08-.3-.85.16-1.79 1.01-2.09.86-.28 1.79.16 2.09 1.01.13.36 3.07 8.99-.83 14.14-.32.43-.81.65-1.31.65z"/><path d="m685.93 818.84c-.34 0-.69-.11-.99-.33-.72-.55-.86-1.57-.32-2.29 2.35-3.11 1.04-9.05.34-11.08-.3-.85.16-1.79 1.01-2.09.86-.29 1.79.16 2.09 1.01.13.36 3.07 8.99-.83 14.14-.32.43-.81.65-1.31.65z"/><path d="m247.51 320.9c-.47 0-.93-.2-1.24-.6-.12-.15-10.51-17.11-8.98-19.47.89-1.38 1.37-2.13 21.08 7.92.8.41 1.13 1.39.71 2.2-.41.81-1.4 1.12-2.2.71-5.77-2.94-12.14-6.01-15.65-7.48 2.08 4.43 6.78 12.98 7.59 14.1.52.72.39 1.74-.32 2.28-.3.23-.65.34-1.01.34z"/></g><path d="m270.72 327.11s5.35-24.72-8.67-23.75c-19.43 1.34-40.37 44.43-9.74 63.28s50.38-5.18 50.38-5.18l-16.79-8.93s16.1-8.06 17.56-17.82c1.45-9.76-10.93-4.16-10.93-4.16s17.88-18.6 8.31-21.87c-9.56-3.27-30.11 18.43-30.11 18.43z" fill="#2a7de1"/><path d="m258.01 320.99c-.44 0-.87-.06-1.28-.2-.83-.28-1.41-.9-1.66-1.72-.76-2.62 2.69-7.47 4.81-10.13.56-.7 1.59-.82 2.29-.26.71.56.82 1.59.26 2.3-2.03 2.54-3.79 5.43-4.15 6.75 1.35-.18 4.05-1.94 5.95-3.71.66-.62 1.69-.58 2.31.08s.58 1.69-.08 2.31c-1.25 1.17-5.2 4.59-8.46 4.59z" fill="#0e2947"/><path d="m281.25 351.58c-.62 0-1.22-.36-1.49-.96-.37-.82 0-1.79.81-2.16 3.85-1.74 10.16-5.72 10.71-8.96.05-.29.02-.4.02-.4-.75-.41-4.86.7-8.4 2.39-.65.3-1.41.16-1.9-.36s-.58-1.3-.22-1.92c2.25-3.95 4-8.23 4.11-9.9-2.37.83-8.93 5.83-14.19 10.53-.68.6-1.71.54-2.31-.13s-.54-1.71.13-2.31c14.9-13.3 17.48-11.63 18.33-11.08 2 1.3 1.63 4.82-1.1 10.49 2.77-.92 5.91-1.5 7.62-.21.58.44 1.49 1.46 1.16 3.45-1.03 6-11.4 10.85-12.58 11.39-.22.1-.45.15-.67.15z" fill="#0e2947"/><path d="m270.51 364.89c-.91 0-14.84-.16-23.39-9.77-5.22-5.87-7.26-13.94-6.04-23.99.11-.9.94-1.53 1.82-1.43.89.11 1.53.92 1.42 1.82-1.1 9.07.66 16.28 5.24 21.42 7.65 8.6 20.71 8.68 20.96 8.68.9 0 1.63.73 1.63 1.63s-.72 1.64-1.63 1.64h-.03z" fill="#0e2947"/><path d="m811.32 363.23c.47 0 .93-.2 1.24-.6.12-.15 10.51-17.11 8.98-19.47-.89-1.38-1.37-2.13-21.08 7.92-.8.41-1.13 1.39-.71 2.2.41.81 1.4 1.12 2.2.71 5.77-2.94 12.14-6.01 15.65-7.48-2.08 4.43-6.78 12.98-7.59 14.1-.52.72-.39 1.74.32 2.28.3.23.65.34 1.01.34z" fill="#0e2947"/><path d="m788.11 369.45s-5.35-24.72 8.67-23.75c19.43 1.34 40.37 44.43 9.74 63.28s-50.38-5.18-50.38-5.18l16.79-8.93s-16.1-8.06-17.56-17.82c-1.45-9.76 10.93-4.16 10.93-4.16s-17.88-18.6-8.31-21.87c9.56-3.27 30.11 18.43 30.11 18.43z" fill="#2a7de1"/><path d="m800.82 363.32c.44 0 .87-.06 1.28-.2.83-.28 1.41-.9 1.66-1.72.76-2.62-2.69-7.47-4.81-10.13-.56-.7-1.59-.82-2.29-.26-.71.56-.82 1.59-.26 2.3 2.03 2.54 3.79 5.43 4.15 6.75-1.35-.18-4.05-1.94-5.95-3.71-.66-.62-1.69-.58-2.31.08s-.58 1.69.08 2.31c1.25 1.17 5.2 4.59 8.46 4.59z" fill="#0e2947"/><path d="m777.58 393.92c.62 0 1.22-.36 1.49-.96.37-.82 0-1.79-.81-2.16-3.85-1.74-10.16-5.72-10.71-8.96-.05-.29-.02-.4-.02-.4.75-.41 4.86.7 8.4 2.39.65.3 1.41.16 1.9-.36s.58-1.3.22-1.92c-2.25-3.95-4-8.23-4.11-9.9 2.37.83 8.93 5.83 14.19 10.53.68.6 1.71.54 2.31-.13s.54-1.71-.13-2.31c-14.9-13.3-17.48-11.63-18.33-11.08-2 1.3-1.63 4.82 1.1 10.49-2.77-.92-5.91-1.5-7.62-.21-.58.44-1.49 1.46-1.16 3.45 1.03 6 11.4 10.85 12.58 11.39.22.1.45.15.67.15z" fill="#0e2947"/><path d="m788.32 407.22c.91 0 14.84-.16 23.39-9.77 5.22-5.87 7.26-13.94 6.04-23.99-.11-.9-.94-1.53-1.82-1.43-.89.11-1.53.92-1.42 1.82 1.1 9.07-.66 16.28-5.24 21.42-7.65 8.6-20.71 8.68-20.96 8.68-.9 0-1.63.73-1.63 1.63s.72 1.64 1.63 1.64h.03z" fill="#0e2947"/><path d="m398.61 316.42h-.01c-1.81-.02-44.42-.57-58.05-17.2-3.63-4.43-4.91-9.61-3.81-15.39 1.83-9.56 7.77-14.82 16.72-14.82 3.71 0 7.92.93 12.08 2.64-.04-7.26 2.2-16.66 7.66-22.67 3.84-4.22 8.66-6.07 14.16-5.19 18.3 2.91 13.48 64.16 12.87 71.14-.07.85-.78 1.49-1.63 1.49zm-45.15-44.14c-7.42 0-11.97 4.09-13.51 12.16-.93 4.85.09 9.01 3.12 12.7 11.3 13.78 46.29 15.71 54.03 15.96.33-4.49 1.2-18.19.62-31.95-.88-21.05-4.74-33.18-10.86-34.15-4.4-.69-8.1.73-11.23 4.17-5.05 5.55-7.18 15.07-6.76 22.01 4.31 2.25 10.47 6.5 9.73 10.1-.19.92-.97 2.48-4.11 2.65-.03 0-.38.02-.39 0-4.39 0-7.45-3.95-8.31-10.62-4.25-1.96-8.59-3.04-12.32-3.04zm16.01 4.99c.64 2.53 1.95 5.4 4.62 5.4 1.15-.06 1.41-.25 1.41-.25-.12-.56-2.18-2.82-6.03-5.15z" fill="#0e2947"/><path d="m541.78 309.89s-17.65-14.13-28.29-6.78c-8.82 6.09-31.59 21.91-43.55 58.58-2.53 7.76.77 9.26 29.72 13.51s36.69 11.53 36.69 11.53 43.21-4.33 46.87-7.16-41.44-69.68-41.44-69.68z" fill="#2a7de1"/><path d="m583.79 373.27s-9.91-35.02-26.63-51.1c-23.1-22.23-41.68-23.39-43.61-11.81s42.92 42.83 64.07 66.77c5.4 6.11 7.82 1.38 6.18-3.86z" fill="#2a7de1" stroke="#061023" stroke-linecap="round" stroke-miterlimit="10" stroke-width="2"/><path d="m616.64 306.26s10.42-17.65 22.77-21.51 21.61 10.21 27.4 20.93 22.39 24.23 25.09 33.11 6.18 20.46-16.6 29.72c-22.77 9.26-65.23 12.74-73.33 12.74s-8.88-9.65-8.1-19.3c.77-9.65 19.33-49.14 22.77-55.68z" fill="#2a7de1"/><path d="m593.87 361.94s8.9-23.93 16.61-40.14 23.14-35.89 32.41-33.19c9.26 2.7-2.32 28.95-15.82 45.54-13.51 16.6-25.09 28.56-28.56 31.65s-4.63-3.86-4.63-3.86z" fill="#2a7de1" stroke="#061023" stroke-linecap="round" stroke-miterlimit="10" stroke-width="2"/><path d="m567.93 364.76s4.35-7.5 13.42-10.59 17.17-2.53 18.72 5.29c1.54 7.83-.77 12.07-4.63 14.39s-18.52 4.11-26.05 3.6-3.71-9.71-1.46-12.69z" fill="#2a7de1" stroke="#061023" stroke-linecap="round" stroke-miterlimit="10" stroke-width="2"/><path d="m499.36 423.64s20.46 52.1 32.81 132.77l-61.75 29.72s-13.12-44.77-34.74-92.24l63.68-70.24z" fill="#eab328"/><path d="m499.36 423.64s22.39 59.44 32.81 132.77l146.28-10.81s16.98-63.3 16.21-132c0 0-89.16-6.18-195.29 10.03z" fill="#ffc629"/><path d="m470.42 586.13 137.4-12.35 70.63-28.18-146.28 10.81z" fill="#ffc629"/><path d="m414.07 457.6s6.56 25.47 11.19 47.28c0 0 64.45-72.75 74.1-81.24l-9.65-49.02s-34.74 49.79-75.65 82.98z" fill="#eab328"/><path d="m434.05 439.75s3.69 26.01 14.45 39.05l26.39-29.26s-5.52-23.1-13.06-39.49c0 0-22.18 24.37-27.78 29.69z" fill="#2577ba"/><path d="m454.47 473.16s23.22 41.82 38.27 102.22l14.69-7.07s-19.75-78.93-37.02-113.85l-15.95 18.69z" fill="#2577ba"/><path d="m489.71 374.62 9.65 49.02s91.09-14.66 208.8-11.19c0 0 5.79-38.6 8.49-46.32 0 0-84.14-5.4-226.94 8.49z" fill="#ffc629"/><path d="m580.18 367.71s9.73 16.66 7 46.95c0 0 33.14-2.06 54.09-2.39 0 0 4.77-26.12-6.17-47.18z" fill="#2a7de1"/><path d="m597.02 551.62s10.05-70.39-3.39-137.59l40.25-1.57s11.36 84.82-3.59 136.71l-33.27 2.46z" fill="#2a7de1"/><path d="m435.68 493.88 63.68-70.24s146.3-15.82 195.29-10.03" fill="none" stroke="#061023" stroke-linecap="round" stroke-miterlimit="10" stroke-width="2"/><path d="m489.71 374.62 9.65 49.02s21.38 39.3 32.81 132.77" fill="none" stroke="#061023" stroke-linecap="round" stroke-miterlimit="10" stroke-width="2"/><path d="m470.42 586.13 61.75-29.72 148.04-10.81" fill="none" stroke="#061023" stroke-linecap="round" stroke-miterlimit="10" stroke-width="2"/><path d="m564.94 368.6 81.28-3.5" fill="none" stroke="#061023" stroke-linecap="round" stroke-miterlimit="10" stroke-width="2"/></svg>