<svg viewBox="0 0 1118.44 1982.85" xmlns="http://www.w3.org/2000/svg" xmlns:xlink="http://www.w3.org/1999/xlink"><clipPath id="a"><path d="m0 0h1118.44v1982.85h-1118.44z"/></clipPath><g style="clip-path:url(#a);opacity:.36;fill:none;stroke:#ffc629;stroke-miterlimit:10;stroke-width:3"><circle cx="571.65" cy="893.05" opacity=".9" r="77.38"/><circle cx="571.65" cy="893.05" opacity=".8" r="114.61"/><circle cx="571.65" cy="893.05" opacity=".7" r="152.17"/><circle cx="571.65" cy="893.05" opacity=".6" r="194.92"/><circle cx="571.65" cy="893.05" opacity=".6" r="241.21"/><circle cx="571.65" cy="893.05" opacity=".5" r="308.99"/><circle cx="571.65" cy="893.05" opacity=".4" r="380.78"/><circle cx="571.65" cy="893.05" opacity=".3" r="487.76"/></g><path d="m549.43 989.28s-135.73-122.65-73.59-174.98 98.12 13.08 98.12 13.08 40.88-55.6 86.67-6.54-91.58 191.33-111.2 168.44z" fill="#ffc629"/><path d="m254.01 671.49h-.01c-.95 0-1.71-.78-1.71-1.73l.17-28.88c0-.95.77-1.71 1.72-1.71h.01c.95 0 1.71.78 1.71 1.73l-.17 28.88c0 .95-.77 1.71-1.72 1.71z" fill="#0e2947"/><path d="m242.36 665.19c-.54 0-1.07-.25-1.41-.73-.54-.78-.35-1.85.43-2.39l23.85-16.63c.77-.54 1.84-.36 2.39.43.54.78.35 1.85-.43 2.39l-23.85 16.63c-.3.21-.64.31-.98.31z" fill="#0e2947"/><path d="m263.3 666.4c-.46 0-.91-.18-1.25-.54l-18.03-19.05c-.65-.69-.62-1.78.07-2.43s1.77-.62 2.43.07l18.03 19.05c.65.69.62 1.78-.07 2.43-.33.32-.76.47-1.18.47z" fill="#0e2947"/><path d="m239.1 656.75c-.94 0-1.71-.76-1.72-1.7-.01-.95.75-1.72 1.7-1.73l27.78-.26h.01c.95 0 1.71.76 1.72 1.7.01.95-.75 1.72-1.7 1.73l-27.78.26h-.02z" fill="#0e2947"/><path d="m935.84 721.83h-.01c-.95 0-1.71-.78-1.71-1.73l.17-28.88c0-.95.77-1.71 1.72-1.71h.01c.95 0 1.71.78 1.71 1.73l-.17 28.88c0 .95-.77 1.71-1.72 1.71z" fill="#0e2947"/><path d="m924.19 715.53c-.54 0-1.07-.25-1.41-.73-.54-.78-.35-1.85.43-2.39l23.85-16.63c.77-.54 1.84-.36 2.39.43.54.78.35 1.85-.43 2.39l-23.85 16.63c-.3.21-.64.31-.98.31z" fill="#0e2947"/><path d="m945.13 716.74c-.46 0-.91-.18-1.25-.54l-18.03-19.05c-.65-.69-.62-1.78.07-2.43s1.77-.62 2.43.07l18.03 19.05c.65.69.62 1.78-.07 2.43-.33.32-.76.47-1.18.47z" fill="#0e2947"/><path d="m920.93 707.08c-.94 0-1.71-.76-1.72-1.7-.01-.95.75-1.72 1.7-1.73l27.78-.26h.01c.95 0 1.71.76 1.72 1.7.01.95-.75 1.72-1.7 1.73l-27.78.26h-.02z" fill="#0e2947"/><path d="m923.94 930.09h-.05c-6.54-.03-11.84-5.37-11.81-11.92.03-6.52 5.35-11.81 11.86-11.81 3.22.01 6.2 1.26 8.43 3.51s3.45 5.24 3.44 8.4c-.03 6.52-5.36 11.82-11.87 11.82zm.04-20.3c-4.67 0-8.45 3.77-8.47 8.4-.02 4.65 3.75 8.45 8.4 8.47l.04 1.72v-1.72c4.63 0 8.41-3.77 8.44-8.4.01-2.25-.86-4.37-2.45-5.97s-3.7-2.49-5.95-2.5z" fill="#0e2947"/><path d="m233.87 893.28h-.05c-6.54-.03-11.84-5.37-11.81-11.92.03-6.52 5.35-11.81 11.86-11.81 3.22.01 6.2 1.26 8.43 3.51s3.45 5.24 3.44 8.4c-.03 6.52-5.36 11.82-11.87 11.82zm.04-20.3c-4.67 0-8.45 3.77-8.47 8.4-.02 4.65 3.75 8.45 8.4 8.47l.04 1.72v-1.72c4.63 0 8.41-3.77 8.44-8.4.01-2.25-.86-4.37-2.45-5.97s-3.7-2.49-5.95-2.5z" fill="#0e2947"/><path d="m193.42 745.14c-.56 0-1.08-.16-1.52-.47-.45-.31-.72-.82-.74-1.37 0-.08-.18-7.67-.14-16.72-16.88-5.83-17.04-7.06-17.2-8.27-.09-.64.3-1.47.83-1.84 1.36-.93 10.69-4.28 16.74-6.37.75-15.73 2.42-17 4.51-17 .23 0 .71.1.93.19 2.15.93 6.89 6.56 10.75 11.48 8.06-2.48 13.2-3.74 15.29-3.74 1.13 0 1.91.37 2.32 1.1.36.64.33 1.4-.09 2.08-.15.25-3.63 5.95-8.31 13.1 9.57 13.99 8.52 16.01 8.01 16.99-.4.77-1.19 1.24-2.1 1.25h-.04c-2.5 0-10.47-2.27-15.73-3.85-8.58 11.77-11.56 13.42-13.5 13.42zm1.02-17.39c-.01 5.63.06 10.57.1 13.28 1.34-1.06 3.97-3.71 8.89-10.37-2.99-.93-6.04-1.91-9-2.91zm28.2 4.38v1.72-1.72s0 0 0 0zm-13.61-3.37c6.43 1.91 10.4 2.88 12.38 3.22-.61-1.69-2.45-5.28-6.67-11.57-2.02 3.04-3.93 5.83-5.71 8.35zm-14.57-4.64c3.63 1.23 7.43 2.46 11.1 3.59 2.16-3.03 4.54-6.5 7.08-10.35-1.99-2.85-4.15-5.79-6.31-8.61-3.79 1.19-7.8 2.52-11.61 3.82-.13 3.41-.22 7.28-.25 11.55zm-15.51-5.85c2.06.96 5.83 2.48 12.09 4.67.03-3.32.1-6.38.19-9.17-5.73 2-9.87 3.54-12.28 4.5zm30.87-10.61c1.65 2.18 3.29 4.41 4.85 6.61 2.58-3.96 4.73-7.39 6.06-9.52-1.91.37-5.19 1.18-10.9 2.92zm-13.52-10.61c-.4 1.27-1.01 4.37-1.41 11.84 3.04-1.03 6.17-2.06 9.19-3.03-3.87-4.87-6.46-7.65-7.78-8.81z" fill="#0e2947"/><path d="m412.09 728.81s52.29-25.63 87.7-18.32c35.42 7.31 80.14 64.98 69.69 83.06s-45.57-31.18-92.16-6.75c-27.13 14.23-58.34 81.54-34.97 114.69 23.37 33.16 102.37 112.27 95.95 127.13-6.43 14.86-97.81-30.87-126.83-85.43s76.38 58.37 64.47 62.64c-63.56 22.79-90.19-35.57-90.19-35.57s91.61 31.27 71 41.57c-55.17 27.58-131.93-1.2-157.95-75.71-21.84-62.53-25.91-183.43-42.02-202.95s80.39-96.73 101.33-84.31c20.93 12.42 53.99 79.95 53.99 79.95z" fill="#e58f4e"/><g fill="#0e2947"><path d="m467.54 1005.14c-.26 0-.52-.06-.77-.18-2.37-1.19-58.25-29.4-77.48-63.05-19.29-33.75-11.33-73.87-10.98-75.56.19-.93 1.11-1.55 2.02-1.33.93.19 1.52 1.1 1.34 2.02-.08.4-8.03 40.56 10.6 73.16 18.71 32.74 75.46 61.4 76.03 61.68.85.43 1.19 1.45.77 2.3-.3.6-.91.95-1.54.95z"/><path d="m435.16 1019.54c-.18 0-.36-.03-.53-.08-2.28-.74-56.04-18.61-76.52-54.76-20.34-35.89-22.98-66.37-23.01-66.67-.08-.95.63-1.77 1.57-1.85.95-.06 1.77.63 1.85 1.57.03.29 2.63 30.06 22.57 65.26 19.82 34.97 74.05 53.01 74.6 53.18.9.29 1.39 1.26 1.1 2.17-.24.72-.91 1.18-1.63 1.18z"/><path d="m517.91 1012.34c-.45 0-.9-.18-1.24-.53-8.01-8.42-15.53-12.32-22.35-11.59-7.84.83-12.08 7.64-12.12 7.71-.5.81-1.56 1.06-2.36.57-.81-.5-1.06-1.55-.57-2.36.21-.34 5.18-8.32 14.69-9.33 7.94-.85 16.41 3.41 25.2 12.64.65.69.63 1.77-.06 2.43-.33.32-.76.47-1.18.47z"/><path d="m424.36 969.17c-.77 0-1.47-.52-1.66-1.3-.23-.92.33-1.85 1.24-2.08.13-.04 13.65-3.6 19.22-16.99.37-.88 1.38-1.28 2.25-.93.87.37 1.29 1.37.93 2.25-6.26 15.02-20.93 18.84-21.56 19-.14.03-.28.05-.42.05z"/><path d="m413.57 957.17c-.63 0-1.23-.35-1.54-.95-.42-.85-.08-1.88.77-2.3 6.44-3.22 23.34-13.56 24.25-22.62.09-.94.96-1.63 1.88-1.54.94.09 1.63.94 1.54 1.88-1.28 12.79-25.11 24.85-26.13 25.35-.25.12-.51.18-.77.18z"/><path d="m551.49 777.27c-.48 0-.96-.2-1.3-.6-9.17-10.69-13.45-20.27-12.72-28.46.59-6.66 4.38-9.83 4.54-9.96.73-.6 1.81-.49 2.41.24s.49 1.81-.23 2.41c-.14.12-2.9 2.54-3.32 7.75-.4 4.96 1.35 13.46 11.92 25.79.62.72.53 1.8-.19 2.42-.32.27-.72.41-1.12.41z"/><path d="m501.12 741.29c-.78 0-1.48-.53-1.67-1.32-4.96-21.08 2.53-28.87 2.85-29.19.67-.67 1.76-.67 2.43 0s.67 1.74.01 2.41c-.1.11-6.41 7.05-1.95 25.99.22.92-.35 1.85-1.28 2.06-.13.03-.26.05-.39.05z"/><path d="m486.73 740.09c-.64 0-1.26-.37-1.55-.99-10.12-21.51 4.09-30.87 4.23-30.96.79-.51 1.86-.27 2.37.53s.27 1.86-.52 2.37c-.54.35-11.74 7.97-2.97 26.61.41.86.04 1.88-.82 2.28-.23.11-.49.16-.73.16z"/><path d="m373.99 978.76c-.66 0-1.3-.39-1.58-1.04-.37-.87.03-1.88.9-2.26 6.25-2.68 16.75-8.23 18.3-11.71.39-.87 1.4-1.25 2.27-.87.86.39 1.26 1.4.87 2.27-2.59 5.84-18.3 12.71-20.08 13.47-.22.09-.45.14-.68.14z"/><path d="m383.21 990.28c-.52 0-1-.08-1.43-.24-.88-.33-1.34-1.32-1-2.21.33-.89 1.31-1.35 2.21-1 2.24.86 11.46-5.64 18.62-12.25.69-.64 1.78-.6 2.42.1s.6 1.78-.1 2.42c-3.53 3.26-14.77 13.18-20.73 13.18z"/><path d="m336.21 989.55c-.87 0-1.62-.67-1.71-1.56-.08-.95.61-1.78 1.55-1.87.12-.01 12.25-1.21 15.39-8.01.4-.86 1.42-1.23 2.28-.84.86.4 1.23 1.42.84 2.28-3.97 8.6-17.62 9.93-18.2 9.98-.05 0-.1 0-.16 0z"/><path d="m347.01 1000.95c-.71 0-1.37-.44-1.62-1.15-.31-.89.16-1.87 1.06-2.19 3.63-1.26 13.43-5.49 15.16-9.81.35-.88 1.35-1.31 2.23-.96s1.31 1.35.96 2.23c-2.61 6.54-15.73 11.26-17.22 11.78-.18.06-.38.09-.56.09z"/><path d="m289.23 787c-.62 0-1.23-.35-1.53-.94-1.02-2-5.91-12.23-2.43-16.55.6-.74 1.68-.85 2.41-.26s.85 1.68.26 2.41c-1.55 1.92.77 8.8 2.82 12.85.43.84.09 1.88-.76 2.31-.25.12-.51.18-.77.18z"/><path d="m291.4 813.99c-.62 0-1.23-.35-1.53-.94-1.02-2-5.91-12.23-2.43-16.55.6-.74 1.68-.85 2.41-.26.74.59.85 1.68.26 2.41-1.55 1.92.77 8.8 2.82 12.85.43.84.09 1.88-.76 2.31-.25.12-.51.18-.77.18z"/><path d="m302.29 805.37c-.62 0-1.23-.35-1.53-.94-1.02-2-5.91-12.23-2.43-16.55.6-.74 1.67-.85 2.41-.26s.85 1.68.26 2.41c-1.55 1.92.77 8.8 2.82 12.85.43.84.09 1.88-.76 2.31-.25.12-.51.18-.77.18z"/><path d="m300.74 779.78c-.63 0-1.23-.35-1.53-.94-1.02-2-5.9-12.23-2.43-16.55.59-.74 1.68-.85 2.41-.26s.85 1.68.26 2.41c-1.54 1.92.77 8.8 2.82 12.85.43.84.09 1.88-.76 2.31-.25.12-.51.18-.77.18z"/><path d="m287.8 759.5c-.62 0-1.23-.35-1.53-.94-1.02-2-5.91-12.23-2.43-16.55.6-.74 1.68-.85 2.41-.26.74.6.85 1.68.26 2.41-1.55 1.92.76 8.8 2.82 12.85.43.84.09 1.88-.76 2.31-.25.12-.51.18-.77.18z"/><path d="m300.38 831.57c-.62 0-1.23-.35-1.53-.94-1.02-2-5.91-12.23-2.43-16.55.6-.74 1.68-.85 2.41-.26.74.59.85 1.68.26 2.41-1.55 1.92.77 8.8 2.82 12.85.43.84.09 1.88-.76 2.31-.25.12-.51.18-.77.18z"/></g><path d="m776.24 771.84s-42.36-39.96-78.35-43.46-95.78 38.35-91.15 58.71 52.76-16.3 90.03 20.83c21.7 21.62 31.59 95.15-.54 119.9s-131.01 76.93-129.28 93.03c1.74 16.1 102.56-.53 146.43-44.06 43.87-43.52-90.23 33.15-80.12 40.75 53.97 40.58 96.68-7.28 96.68-7.28s-96.76 2.75-80.13 18.69c44.53 42.68 126.37 37.9 173.28-25.56 39.37-53.26 79.05-167.54 100.21-181.42 21.17-13.87-48.16-116.19-71.83-110.53s-75.23 60.39-75.23 60.39z" fill="#e58f4e"/><path d="m641.99 1019.46c-.82 0-1.55-.6-1.69-1.44-.15-.94.48-1.82 1.41-1.97.63-.1 63.33-10.68 90.89-36.41 27.45-25.63 31.74-66.33 31.78-66.74.09-.94.96-1.64 1.88-1.54.94.09 1.63.93 1.54 1.87-.17 1.72-4.44 42.38-32.86 68.92-28.32 26.45-90.05 36.86-92.67 37.29-.09.02-.19.02-.28.02z" fill="#0e2947"/><path d="m668.66 1042.79c-.94 0-1.7-.75-1.72-1.69-.01-.95.74-1.73 1.69-1.74.58-.01 57.71-1.18 87-28.72 29.51-27.75 40.76-55.38 40.87-55.65.35-.88 1.35-1.31 2.23-.96s1.31 1.35.96 2.23c-.11.28-11.65 28.61-41.7 56.88-30.26 28.46-86.9 29.61-89.3 29.65z" fill="#0e2947"/><path d="m628.32 1018.99c-.76 0-1.46-.51-1.66-1.29-.02-.08-2.11-7.88-9.33-10.97-6.28-2.69-14.61-1.19-24.74 4.47-.82.46-1.87.17-2.34-.66-.46-.83-.17-1.87.66-2.34 11.12-6.22 20.48-7.77 27.81-4.61 8.77 3.78 11.17 12.87 11.26 13.26.23.92-.32 1.85-1.24 2.08-.14.04-.28.05-.43.05z" fill="#0e2947"/><path d="m693.88 997.87c-.3 0-.61-.08-.89-.25-.55-.33-13.44-8.33-14.97-24.52-.09-.94.6-1.78 1.55-1.87.88-.05 1.78.6 1.87 1.55 1.37 14.5 13.21 21.84 13.33 21.91.81.49 1.07 1.55.58 2.36-.33.53-.89.82-1.47.82z" fill="#0e2947"/><path d="m707.74 989.61c-.43 0-.85-.16-1.19-.48-.82-.78-20.02-19.36-17.45-31.95.19-.93 1.11-1.53 2.02-1.34.93.19 1.53 1.1 1.34 2.02-1.82 8.92 11.26 23.81 16.46 28.79.68.66.71 1.74.05 2.43-.34.35-.79.53-1.24.53z" fill="#0e2947"/><path d="m629.25 776.95c-.57 0-1.13-.28-1.45-.8-.51-.8-.26-1.86.54-2.37 13.75-8.65 17.93-16.26 19.02-21.11 1.15-5.13-.79-8.26-.87-8.39-.51-.79-.28-1.85.51-2.37.79-.51 1.84-.3 2.36.49.11.17 2.8 4.33 1.39 10.86-1.73 8.04-8.66 15.92-20.58 23.42-.28.18-.6.26-.91.26z" fill="#0e2947"/><path d="m688.01 757.49c-.3 0-.6-.08-.87-.24-.81-.48-1.09-1.53-.61-2.35 10.01-17.03 5.88-25.3 5.83-25.38-.44-.84-.12-1.88.72-2.32.83-.44 1.88-.12 2.32.72.21.4 5.06 10.06-5.91 28.73-.32.54-.89.84-1.48.84z" fill="#0e2947"/><path d="m702.11 760.6c-.41 0-.83-.15-1.16-.45-.7-.64-.75-1.73-.11-2.42 14.02-15.34 5.13-26.19 5.04-26.29-.61-.72-.53-1.81.2-2.42.72-.61 1.81-.53 2.42.2.11.13 10.91 13.28-5.12 30.82-.34.37-.8.56-1.27.56z" fill="#0e2947"/><path d="m739.15 1021.94c-.4 0-.79-.13-1.11-.41-1.47-1.26-14.44-12.46-15.19-18.81-.11-.94.56-1.79 1.5-1.9.93-.15 1.8.56 1.9 1.5.45 3.78 8.83 12.19 14.01 16.6.72.62.81 1.7.19 2.42-.34.4-.82.6-1.31.6z" fill="#0e2947"/><path d="m727.67 1030.35c-5.73 0-14.55-14.45-17.14-18.92-.48-.82-.19-1.87.62-2.35s1.87-.2 2.35.62c4.84 8.36 11.63 17.21 14.1 17.21h.16c.9 0 1.66.7 1.71 1.62.06.95-.67 1.76-1.61 1.81-.06 0-.13 0-.19 0z" fill="#0e2947"/><path d="m772.04 1043.44c-.22 0-.44-.04-.65-.13-.54-.22-13.18-5.54-14.42-14.92-.12-.94.54-1.8 1.48-1.93.91-.14 1.8.54 1.93 1.48.98 7.44 12.21 12.15 12.32 12.2.88.36 1.29 1.36.93 2.24-.27.66-.91 1.06-1.59 1.06z" fill="#0e2947"/><path d="m758.36 1051.13c-.36 0-.71-.11-1.02-.34-1.27-.94-12.4-9.33-12.96-16.35-.08-.95.63-1.77 1.57-1.85.94-.05 1.77.63 1.85 1.57.37 4.64 8.49 11.58 11.58 13.86.76.56.93 1.64.36 2.4-.34.46-.85.7-1.38.7z" fill="#0e2947"/><path d="m873.71 856.61c-.71 0-1.37-.44-1.62-1.15-.32-.89.15-1.87 1.05-2.19 2.33-.82 3.98-7.89 4.36-12.4.08-.95.99-1.62 1.85-1.57.95.08 1.65.91 1.57 1.85-.19 2.24-1.41 13.51-6.64 15.35-.19.07-.38.1-.57.1z" fill="#0e2947"/><path d="m886.06 832.51c-.71 0-1.37-.44-1.62-1.15-.32-.89.15-1.87 1.05-2.19 2.32-.82 3.97-7.89 4.36-12.41.08-.94.95-1.61 1.86-1.56.94.08 1.64.91 1.56 1.85-.19 2.24-1.41 13.51-6.64 15.35-.19.07-.38.1-.57.1z" fill="#0e2947"/><path d="m872.26 834.12c-.71 0-1.37-.44-1.62-1.15-.32-.89.15-1.87 1.05-2.19 2.32-.82 3.97-7.89 4.36-12.41.08-.94.92-1.61 1.86-1.56.94.08 1.64.91 1.56 1.85-.19 2.24-1.41 13.51-6.64 15.36-.19.07-.38.1-.57.1z" fill="#0e2947"/><path d="m860.12 856.7c-.71 0-1.37-.44-1.62-1.15-.32-.89.15-1.87 1.05-2.19 2.32-.82 3.97-7.89 4.36-12.41.08-.94.95-1.61 1.86-1.56.94.08 1.64.91 1.56 1.85-.19 2.24-1.41 13.51-6.64 15.35-.19.07-.38.1-.57.1z" fill="#0e2947"/><path d="m860.47 880.76c-.71 0-1.37-.44-1.62-1.15-.32-.89.15-1.87 1.05-2.19 2.32-.82 3.97-7.89 4.36-12.41.08-.94.95-1.6 1.86-1.56.94.08 1.64.91 1.56 1.85-.19 2.24-1.41 13.51-6.64 15.35-.19.07-.38.1-.57.1z" fill="#0e2947"/><path d="m887.66 812.84c-.71 0-1.37-.44-1.62-1.15-.32-.89.15-1.87 1.05-2.19 2.32-.82 3.97-7.89 4.36-12.41.08-.95.93-1.61 1.86-1.56.94.08 1.64.91 1.56 1.86-.19 2.24-1.41 13.51-6.64 15.35-.19.07-.38.1-.57.1z" fill="#0e2947"/><path d="m152.75 788.18s58.41-24.12 67.42-18.71c9.02 5.41 18.8 53.43 18.8 53.43s23.62 7.05 18.52 12.15c-2.89 2.89-75.4 30.94-86.22 23.73s-32.94-65.19-18.52-70.6z" fill="#2a7de1"/><path d="m203.67 834.48s-40.76-14.75-35.88-27.78c6.94-18.52 27.78.58 27.78.58s-2.31-30.67 13.89-18.52-2.31 46.87-5.79 45.71z" fill="#fdffff"/><path d="m939.88 976.94s-58.41-24.12-67.42-18.71c-9.02 5.41-18.8 53.43-18.8 53.43s-23.62 7.05-18.52 12.15c2.89 2.89 75.4 30.94 86.22 23.73s32.94-65.19 18.52-70.6z" fill="#2a7de1"/><path d="m888.96 1023.24s40.76-14.75 35.88-27.78c-6.94-18.52-27.78.58-27.78.58s2.31-30.67-13.89-18.52 2.31 46.87 5.79 45.71z" fill="#fdffff"/></svg>