<svg viewBox="0 0 944.98 814.74" xmlns="http://www.w3.org/2000/svg"><g fill="none" opacity=".36" stroke="#ffc629" stroke-miterlimit="10" stroke-width="3"><path d="m397.78 471.06c.77-40.61 33.92-73.28 74.71-73.28s73.94 32.67 74.71 73.28" opacity=".9"/><path d="m361.84 471.06c.76-60.46 50.01-109.23 110.65-109.23s109.89 48.77 110.65 109.23" opacity=".8"/><path d="m325.56 471.06c.77-80.49 66.26-145.5 146.93-145.5s146.16 65.01 146.93 145.5" opacity=".7"/><path d="m284.27 471.06c.77-103.29 84.75-186.79 188.22-186.79s187.45 83.5 188.22 186.79" opacity=".6"/><path d="m239.58 471.06c.77-127.98 104.75-231.48 232.91-231.48s232.14 103.5 232.91 231.48" opacity=".6"/><path d="m174.13 471.06c.77-164.12 134.06-296.93 298.36-296.93s297.59 132.81 298.36 296.93" opacity=".5"/><path d="m104.81 471.06c.77-202.41 165.09-366.25 367.68-366.25s366.91 163.84 367.68 366.25" opacity=".4"/><path d="m1.5 471.06c.77-259.47 211.34-469.56 470.99-469.56s470.22 210.09 470.99 469.56" opacity=".3"/></g><path d="m791.72 526.88c-.42 0-.85-.16-1.16-.49-.63-.64-.62-1.68.02-2.31.92-1 6.61-8.92 9.21-13.07-3.65 1.04-10.35 3.32-16.43 5.55-.85.31-1.79-.13-2.1-.97-.31-.85.13-1.79.97-2.1 20.78-7.6 21.16-6.79 21.88-5.32 1.23 2.51-11.12 18.11-11.25 18.24-.32.31-.73.47-1.15.47z" fill="#0e2947"/><path d="m767.76 530.23s-2.34-25.18 11.47-22.53c19.12 3.67 34.73 48.97 2.06 63.99s-49.39-11.21-49.39-11.21l17.74-6.84s-15.02-9.94-15.28-19.81 11.36-2.81 11.36-2.81-15.51-20.62-5.62-22.71 27.68 21.92 27.68 21.92z" fill="#ffc629"/><path d="m781.63 525.71c-3.38 0-7.21-4.23-8.37-5.61-.58-.69-.49-1.72.2-2.3.68-.58 1.72-.49 2.3.2 1.68 1.99 4.14 4.05 5.46 4.4-.21-1.36-1.62-4.48-3.3-7.19-.47-.77-.24-1.77.53-2.25.77-.47 1.77-.24 2.25.53 1.79 2.89 4.63 8.12 3.55 10.63-.34.79-1 1.33-1.85 1.51-.25.05-.51.08-.77.08z" fill="#0e2947"/><path d="m754.56 553.27c-.29 0-.58-.08-.85-.24-1.11-.67-10.83-6.74-11.12-12.82-.1-2.01.94-2.92 1.56-3.28 1.84-1.07 4.9-.12 7.53 1.12-2.03-5.96-1.98-9.5.17-10.55.89-.45 3.64-1.81 16.86 13.21.6.68.53 1.71-.15 2.31s-1.71.53-2.3-.15c-4.66-5.29-10.56-11.05-12.82-12.16-.09 1.67 1.13 6.13 2.88 10.32.28.66.09 1.42-.45 1.88-.55.46-1.33.51-1.93.13-3.24-2.06-7.08-3.64-8.09-3.31.01.04 0 .14 0 .32.16 3.29 5.95 8 9.56 10.19.77.47 1.01 1.47.55 2.24-.31.51-.85.79-1.4.79z" fill="#0e2947"/><path d="m766.85 567.93c-1.99 0-3.28-.15-3.45-.17-.89-.11-1.53-.93-1.42-1.82.11-.9.94-1.51 1.82-1.42.14.02 13.24 1.54 21.88-6.11 5.15-4.55 7.76-11.49 7.76-20.62 0-.9.73-1.63 1.63-1.63.9 0 1.63.73 1.63 1.63 0 10.12-2.99 17.88-8.89 23.09-6.95 6.13-16.07 7.06-20.98 7.06z" fill="#0e2947"/><path d="m157.5 181.19c-.47 0-.93-.2-1.24-.6-.12-.15-10.51-17.11-8.98-19.47.89-1.38 1.37-2.13 21.08 7.92.8.41 1.13 1.39.71 2.2-.41.81-1.4 1.12-2.2.71-5.77-2.94-12.14-6.01-15.65-7.48 2.08 4.43 6.78 12.98 7.59 14.1.52.72.39 1.74-.32 2.28-.3.23-.65.34-1.01.34z" fill="#0e2947"/><path d="m180.71 187.41s5.35-24.72-8.67-23.75c-19.43 1.34-40.37 44.43-9.74 63.28s50.38-5.18 50.38-5.18l-16.79-8.93s16.1-8.06 17.56-17.82c1.45-9.76-10.93-4.16-10.93-4.16s17.88-18.6 8.31-21.87c-9.56-3.27-30.11 18.43-30.11 18.43z" fill="#ffc629"/><g fill="#0e2947"><path d="m168 181.29c-.44 0-.87-.06-1.28-.2-.83-.28-1.41-.9-1.66-1.72-.76-2.62 2.69-7.47 4.81-10.13.56-.7 1.59-.82 2.29-.26.71.56.82 1.59.26 2.3-2.03 2.54-3.79 5.43-4.15 6.75 1.35-.18 4.05-1.94 5.95-3.71.66-.62 1.69-.58 2.31.08s.58 1.69-.08 2.31c-1.25 1.17-5.2 4.59-8.46 4.59z"/><path d="m191.24 211.88c-.62 0-1.22-.36-1.49-.96-.37-.82 0-1.79.81-2.16 3.85-1.74 10.16-5.72 10.71-8.96.05-.29.02-.4.02-.4-.75-.41-4.86.7-8.4 2.39-.65.3-1.41.16-1.9-.36s-.58-1.3-.22-1.92c2.25-3.95 4-8.23 4.11-9.9-2.37.83-8.93 5.83-14.19 10.53-.68.6-1.71.54-2.31-.13s-.54-1.71.13-2.31c14.9-13.3 17.48-11.63 18.33-11.08 2 1.3 1.63 4.82-1.1 10.49 2.77-.92 5.91-1.5 7.62-.21.58.44 1.49 1.46 1.16 3.45-1.03 6-11.4 10.85-12.58 11.39-.22.1-.45.15-.67.15z"/><path d="m180.5 225.18c-.91 0-14.84-.16-23.39-9.77-5.22-5.87-7.26-13.94-6.04-23.99.11-.9.94-1.53 1.82-1.43.89.11 1.53.92 1.42 1.82-1.1 9.07.66 16.28 5.24 21.42 7.65 8.6 20.71 8.68 20.96 8.68.9 0 1.63.73 1.63 1.63s-.72 1.64-1.63 1.64h-.03z"/><path d="m308.6 176.71h-.01c-1.81-.02-44.42-.57-58.05-17.2-3.63-4.43-4.91-9.61-3.81-15.39 1.83-9.56 7.77-14.82 16.72-14.82 3.71 0 7.92.93 12.08 2.64-.04-7.26 2.2-16.66 7.66-22.67 3.84-4.22 8.66-6.07 14.16-5.19 18.3 2.91 13.48 64.16 12.87 71.14-.07.85-.78 1.49-1.63 1.49zm-45.15-44.14c-7.42 0-11.97 4.09-13.51 12.16-.93 4.85.09 9.01 3.12 12.7 11.3 13.78 46.29 15.71 54.03 15.96.33-4.49 1.2-18.19.62-31.95-.88-21.05-4.74-33.18-10.86-34.15-4.4-.69-8.1.73-11.23 4.17-5.05 5.55-7.18 15.07-6.76 22.01 4.31 2.25 10.47 6.5 9.73 10.1-.19.92-.97 2.48-4.11 2.65-.03 0-.38.02-.39 0-4.39 0-7.45-3.95-8.31-10.62-4.25-1.96-8.59-3.04-12.32-3.04zm16.01 4.99c.64 2.53 1.95 5.4 4.62 5.4 1.15-.06 1.41-.25 1.41-.25-.12-.56-2.18-2.82-6.03-5.15z"/><path d="m240.24 670.48c-.87 0-1.6-.51-1.96-1.37-.08-.26-1.77-6.53-3.61-14.29-.67.01-1.32.02-1.95.02-9.24 0-11.16-1.3-11.87-2.7-.21-.42-.61-1.56.37-2.88 1.84-2.48 6.91-6.62 10.26-9.22-2.47-13.06-1.81-16.12-.71-17.46.69-.83 1.77-1.12 2.84-.72 2.45.92 8.33 4.25 13.31 7.24 6.87-4.39 11.49-6.61 13.75-6.61 1.7 0 2.47 1.11 2.61 2.06.1.63.37 2.49-3.77 12.53 12.45 8.36 12.54 10.2 12.6 11.21.04.68-.24 1.31-.76 1.74-2.01 1.66-15.08 3.17-19.45 3.64-8.44 16.82-10.61 16.82-11.66 16.82zm-2.24-15.76c1.18 4.94 2.28 9.2 2.88 11.5 1.29-1.64 3.62-5.29 7.16-12.19-3.55.32-6.95.55-10.03.68zm-13.83-3.94c.87.31 3.11.79 8.54.79h1.19c-.65-2.82-1.23-5.48-1.73-7.92-3.83 3.03-6.7 5.59-8 7.14zm10.89-9.38c.6 3.03 1.33 6.41 2.18 10.08 3.77-.14 8.05-.45 12.53-.89 2.01-4.07 3.99-8.36 5.67-12.29-2.65-1.74-5.54-3.56-8.46-5.34-3.88 2.55-8.05 5.5-11.91 8.44zm23.14-1.26c-1.39 3.23-2.97 6.68-4.6 10.04 7.44-.85 12.46-1.76 14.63-2.35-1.01-1.07-3.57-3.33-10.03-7.69zm-25.06-14.93c-.19 1.14-.26 4.26 1.24 12.61 3.11-2.33 6.37-4.64 9.49-6.72-4.67-2.77-8.69-4.98-10.73-5.89zm16.89 5.79c2.3 1.42 4.56 2.85 6.69 4.24 2.09-5.11 2.96-7.99 3.23-9.35-1.21.32-3.98 1.41-9.92 5.12z"/><path d="m709.37 588.38h-.05c-6.23-.03-11.28-5.12-11.25-11.35.03-6.2 5.09-11.25 11.3-11.25 3.07.01 5.9 1.2 8.03 3.34 2.12 2.14 3.29 4.99 3.27 8-.03 6.2-5.1 11.25-11.3 11.25zm.04-19.33c-4.45 0-8.05 3.59-8.07 8-.02 4.43 3.57 8.05 8 8.07l.04 1.63v-1.63c4.41 0 8.01-3.59 8.03-8 0-2.14-.82-4.17-2.33-5.69-1.51-1.53-3.52-2.37-5.67-2.38z"/><path d="m525.65 814.74h-.05c-6.23-.03-11.28-5.12-11.25-11.35.03-6.2 5.09-11.25 11.3-11.25 3.07.01 5.9 1.2 8.03 3.34 2.12 2.14 3.29 4.99 3.27 8-.03 6.2-5.1 11.25-11.3 11.25zm.04-19.33c-4.45 0-8.05 3.59-8.07 8-.02 4.43 3.57 8.05 8 8.07l.04 1.63v-1.63c4.41 0 8.01-3.59 8.03-8 0-2.14-.82-4.17-2.33-5.69-1.51-1.53-3.52-2.37-5.67-2.38z"/><path d="m286.98 295.41c-.9 0-1.63-.74-1.62-1.64l.16-27.5c0-.9.74-1.62 1.63-1.62.9 0 1.63.74 1.62 1.64l-.16 27.5c0 .9-.74 1.62-1.63 1.62z"/><path d="m275.89 289.41c-.51 0-1.02-.24-1.34-.7-.52-.74-.34-1.76.41-2.28l22.71-15.83c.73-.51 1.76-.34 2.28.41.52.74.34 1.76-.41 2.28l-22.71 15.83c-.28.2-.61.29-.94.29z"/><path d="m295.83 290.56c-.43 0-.86-.17-1.19-.51l-17.17-18.14c-.62-.65-.59-1.69.06-2.31.66-.62 1.69-.59 2.31.06l17.17 18.14c.62.65.59 1.69-.06 2.31-.32.3-.72.45-1.12.45z"/><path d="m272.79 281.37c-.9 0-1.62-.72-1.63-1.62 0-.9.71-1.64 1.62-1.65l26.45-.25c.9 0 1.63.72 1.64 1.62 0 .9-.71 1.64-1.62 1.65l-26.45.25h-.02z"/><path d="m380.45 128.13c-1.21 0-2.35 0-5.54-12.68-10.74-2.07-11.68-3.33-12-3.76-.31-.41-.44-1.16-.3-1.64.19-.69.64-2.28 12.92-7.23 4.41-11.5 5.9-11.5 6.9-11.5.51 0 1.23.37 1.54.78.79 1.06 1.5 3.81 2.59 8.22.34 1.38.75 3.04.99 3.78.64.29 2.07.8 3.25 1.22 6.31 2.26 7.94 3.03 8.23 4.54.11.56-.18 1.39-.6 1.77-1.28 1.15-7.39 3.42-10.59 4.56-5.2 11.83-6.31 11.89-7.29 11.94-.03 0-.07 0-.1 0zm-13.38-17.84c2.15.62 6.06 1.51 9.48 2.14.63.12 1.13.59 1.29 1.22.87 3.54 2.02 7.57 2.84 9.87 1.19-2.14 2.99-5.93 4.46-9.29.18-.42.53-.74.95-.89 2.92-1.03 6.21-2.29 8.27-3.19-1.44-.6-3.4-1.31-4.66-1.76-3.61-1.29-4.29-1.57-4.75-2.2-.41-.54-.66-1.45-1.55-5.1-.34-1.37-.86-3.47-1.31-5.05-1.07 2.04-2.57 5.52-3.73 8.59-.16.43-.5.77-.92.94-3.79 1.51-8.09 3.44-10.35 4.7z"/><path d="m709.01 393.27c-1.21 0-2.35 0-5.54-12.68-10.74-2.07-11.68-3.33-12-3.76-.31-.41-.44-1.16-.3-1.64.19-.69.64-2.28 12.92-7.23 4.41-11.5 5.9-11.5 6.9-11.5.51 0 1.23.37 1.54.78.79 1.06 1.5 3.81 2.59 8.22.34 1.38.75 3.04.99 3.78.64.29 2.07.8 3.25 1.22 6.31 2.26 7.94 3.03 8.23 4.54.11.56-.18 1.39-.6 1.77-1.28 1.15-7.39 3.42-10.59 4.56-5.2 11.83-6.31 11.89-7.29 11.94-.03 0-.07 0-.1 0zm-13.38-17.84c2.15.62 6.06 1.51 9.48 2.14.63.12 1.13.59 1.29 1.22.87 3.54 2.02 7.57 2.84 9.87 1.19-2.14 2.99-5.93 4.46-9.29.18-.42.53-.74.95-.89 2.92-1.03 6.21-2.29 8.27-3.19-1.44-.6-3.4-1.31-4.66-1.76-3.61-1.29-4.29-1.57-4.75-2.2-.41-.54-.66-1.45-1.55-5.1-.34-1.37-.86-3.47-1.31-5.05-1.07 2.04-2.57 5.52-3.73 8.59-.16.43-.5.77-.92.94-3.79 1.51-8.09 3.44-10.35 4.7z"/><path d="m442.54 801.39c-1.21 0-2.35 0-5.54-12.68-10.74-2.07-11.68-3.33-12-3.76-.31-.41-.44-1.16-.3-1.64.19-.69.64-2.28 12.92-7.23 4.41-11.5 5.9-11.5 6.9-11.5.51 0 1.23.37 1.54.78.79 1.06 1.5 3.81 2.59 8.22.34 1.38.75 3.04.99 3.78.64.29 2.07.8 3.25 1.22 6.31 2.26 7.94 3.03 8.23 4.54.11.56-.18 1.39-.6 1.77-1.28 1.15-7.39 3.42-10.59 4.56-5.2 11.83-6.31 11.89-7.29 11.94-.03 0-.07 0-.1 0zm-13.38-17.84c2.15.62 6.06 1.51 9.48 2.14.63.12 1.13.59 1.29 1.22.87 3.54 2.02 7.57 2.84 9.87 1.19-2.14 2.99-5.93 4.46-9.29.18-.42.53-.74.95-.89 2.92-1.03 6.21-2.29 8.27-3.19-1.44-.6-3.4-1.31-4.66-1.76-3.61-1.29-4.29-1.57-4.75-2.2-.41-.54-.66-1.45-1.55-5.1-.34-1.37-.86-3.47-1.31-5.05-1.07 2.04-2.57 5.52-3.73 8.59-.16.43-.5.77-.92.94-3.79 1.51-8.09 3.44-10.35 4.7z"/></g><path d="m444.89 442.87c-37.58-57.19-89.88-140.53-89.88-140.53s-35.95 49.02-76.8 119.29 27.78 129.1 31.05 173.22c0 0-17.98 111.12-19.61 124.19s148.7 24.51 155.24 8.17c5.05-12.62 22.75-82.7 26.04-126.02 12.83-38.44 5.44-110.4-26.04-158.31z" fill="#e58f4e"/><path d="m517.91 442.87c37.58-57.19 92.03-140.53 92.03-140.53s33.8 49.02 74.65 119.29-27.78 129.1-31.05 173.22c0 0 17.98 111.12 19.61 124.19s-148.7 24.51-155.24 8.17c-5.05-12.62-22.75-82.7-26.04-126.02-12.83-38.44-5.44-110.4 26.04-158.31z" fill="#e58f4e"/><path d="m349.03 159.63s248.31-13.54 259.82-4.9c11.51 8.63 17.33 416.56-5.7 416.56s-253.25 5.76-253.25 5.76-13.65-414.65-.87-417.41z" fill="#2a7de1"/><path d="m378.44 213.55s185.27-10.6 193.93-4.11 15.15 316.05-2.16 316.05-185.23 6.71-185.23 6.71-13.07-307.21-6.54-318.65z" fill="#fff"/><path d="m384.98 533.84c-.87 0-1.6-.69-1.63-1.56-1.34-31.49-12.9-308.02-6.32-319.53.27-.48.78-.79 1.33-.82 1.09-.06 109.27-6.22 163.48-6.22 24.92 0 29.92 1.23 31.52 2.43 7.27 5.45 9.12 143.27 9.14 144.66.88 68.22-.59 148.32-7.32 168.52-.83 2.5-2.25 5.82-4.97 5.82-17.09 0-183.49 6.64-185.17 6.71-.02 0-.04 0-.06 0zm-5.4-318.71c-4.06 15.25 1.84 194.76 6.96 315.38 17.38-.69 167.43-6.65 183.67-6.65-.03 0 .95-.42 2.19-4.61 6.34-21.53 7.69-100.12 6.83-166.49-1.07-82.78-4.95-138.22-7.95-142.12-.48-.31-4.37-1.68-29.45-1.68-51.26 0-150.94 5.52-162.25 6.15z" fill="#0e2947"/><path d="m390.97 578.51s25.87-11.98 12.8-51.2-36.77-31.87-38.4-115.21c-.77-39.35-47.39-28.6-47.94 52.02-.3 44.87 14.71 80.07 8.17 109.49-6.54 29.41 52.29 22.88 65.36 4.9z" fill="#e58f4e"/><path d="m385.8 592.67c-.44 0-.88-.18-1.2-.53-.61-.66-.57-1.7.1-2.31 39.86-36.65 16.91-69.93-1.53-96.68-4.29-6.23-8.35-12.11-11.07-17.39-5.87-11.4-6.34-28.28-6.79-44.61-.45-16.48-.88-32.04-7.19-37.15-2.02-1.64-4.63-2.14-7.97-1.54-21.06 3.83-28.59 74.5-29.71 101.41-.04.9-.83 1.62-1.7 1.56-.9-.04-1.6-.8-1.57-1.7.17-4.06 4.46-99.41 32.39-104.49 4.28-.78 7.85-.03 10.62 2.21 7.47 6.06 7.9 21.6 8.4 39.6.44 15.96.9 32.47 6.43 43.2 2.63 5.1 6.62 10.89 10.86 17.03 18.15 26.32 43 62.37 1.05 100.94-.32.29-.71.43-1.11.43z" fill="#0e2947"/><path d="m346.52 434.01c-.93 0-1.84-.36-2.66-1.07-6.98-6.11-4.89-26.12-4.63-28.38.1-.9.93-1.54 1.81-1.44.89.1 1.54.91 1.44 1.81-.65 5.67-1.29 21.32 3.54 25.55.39.34.54.28.65.24 2.97-1.01 7.37-14.43 9.74-26.29.18-.89 1.08-1.46 1.92-1.28.89.18 1.46 1.04 1.28 1.92-1.24 6.22-5.78 26.67-11.9 28.75-.4.13-.8.2-1.2.2z" fill="#0e2947"/><path d="m340.93 465.12c-.56 0-1.12-.04-1.67-.11-5.05-.7-7.78-4.4-7.9-4.55-.53-.73-.37-1.75.36-2.28.72-.53 1.74-.37 2.28.35.04.05 2.11 2.77 5.76 3.25 3.03.4 6.36-.8 9.89-3.57.7-.56 1.73-.44 2.29.27s.43 1.74-.28 2.29c-3.67 2.89-7.28 4.35-10.74 4.35z" fill="#0e2947"/><path d="m340.12 478.19c-.56 0-1.12-.04-1.67-.11-5.05-.7-7.78-4.4-7.9-4.55-.53-.73-.37-1.75.36-2.28.72-.53 1.74-.38 2.28.35.04.05 2.11 2.77 5.76 3.25 3.04.39 6.36-.8 9.89-3.57.7-.56 1.73-.44 2.29.27s.43 1.74-.28 2.29c-3.67 2.89-7.28 4.35-10.74 4.35z" fill="#0e2947"/><path d="m572.45 578.51s-25.87-11.98-12.8-51.2 36.77-31.87 38.4-115.21c.77-39.35 47.39-28.6 47.94 52.02.3 44.87-14.71 80.07-8.17 109.49 6.54 29.41-52.29 22.88-65.36 4.9z" fill="#e58f4e"/><path d="m577.63 592.67c-.4 0-.79-.14-1.11-.43-41.95-38.57-17.09-74.62 1.05-100.94 4.24-6.14 8.23-11.94 10.86-17.03 5.53-10.74 5.99-27.24 6.43-43.2.5-17.99.93-33.54 8.4-39.6 2.77-2.25 6.34-2.99 10.62-2.21 27.93 5.08 32.22 100.43 32.39 104.49.04.9-.66 1.66-1.57 1.7-.95.05-1.66-.67-1.7-1.56-1.12-26.91-8.65-97.58-29.71-101.41-3.34-.6-5.95-.1-7.97 1.54-6.3 5.11-6.73 20.68-7.19 37.15-.45 16.33-.92 33.21-6.79 44.61-2.72 5.28-6.78 11.16-11.07 17.39-18.44 26.75-41.4 60.03-1.53 96.68.66.61.71 1.65.1 2.31-.32.35-.76.53-1.2.53z" fill="#0e2947"/><path d="m616.9 434.01c-.4 0-.8-.07-1.2-.2-6.12-2.08-10.65-22.53-11.9-28.75-.18-.89.4-1.75 1.28-1.92.85-.18 1.74.39 1.92 1.28 2.37 11.86 6.77 25.28 9.74 26.29.11.03.26.1.65-.24 4.83-4.23 4.19-19.87 3.54-25.55-.1-.9.54-1.71 1.44-1.81.87-.11 1.71.54 1.81 1.44.26 2.26 2.35 22.27-4.63 28.38-.81.71-1.73 1.07-2.66 1.07z" fill="#0e2947"/><path d="m622.49 465.12c-3.46 0-7.06-1.46-10.74-4.35-.71-.56-.83-1.58-.28-2.29.56-.71 1.6-.83 2.29-.27 3.55 2.79 6.89 3.99 9.94 3.56 3.63-.5 5.69-3.21 5.71-3.24.53-.73 1.55-.89 2.28-.36s.89 1.55.36 2.28c-.11.16-2.85 3.85-7.9 4.55-.55.08-1.11.11-1.67.11z" fill="#0e2947"/><path d="m623.3 478.19c-3.46 0-7.06-1.46-10.74-4.35-.71-.56-.83-1.58-.28-2.29.56-.71 1.6-.83 2.29-.27 3.55 2.79 6.89 3.99 9.94 3.56 3.63-.5 5.69-3.21 5.71-3.24.53-.73 1.56-.89 2.28-.36.73.53.89 1.55.36 2.28-.11.16-2.85 3.85-7.9 4.55-.55.08-1.11.11-1.67.11z" fill="#0e2947"/><path d="m325.33 384.32c-.14 0-.29-.02-.44-.06-15.64-4.35-15.18-10.88-15.07-11.61.13-.89.97-1.52 1.85-1.39.87.12 1.48.91 1.39 1.78 0 .21.22 4.6 12.7 8.07.87.24 1.38 1.14 1.14 2.01-.2.72-.86 1.2-1.57 1.2z" fill="#0e2947"/><path d="m320.43 394.12c-6.97 0-17.13-9.19-18.27-10.24-.66-.61-.71-1.65-.09-2.31.61-.66 1.65-.7 2.31-.09 2.83 2.61 11.22 9.37 16.05 9.37.9 0 1.63.73 1.63 1.63s-.73 1.63-1.63 1.63z" fill="#0e2947"/><path d="m642.35 384.32c-.72 0-1.37-.47-1.57-1.2-.24-.87.27-1.77 1.14-2.01 12.54-3.48 12.72-7.96 12.71-8-.13-.89.49-1.72 1.39-1.85.87-.13 1.72.49 1.85 1.39.11.73.57 7.27-15.07 11.61-.15.04-.29.06-.44.06z" fill="#0e2947"/><path d="m647.25 394.12c-.9 0-1.63-.73-1.63-1.63s.73-1.63 1.63-1.63c4.84 0 13.23-6.76 16.05-9.37.66-.61 1.69-.57 2.31.09.61.66.57 1.7-.09 2.31-1.13 1.05-11.29 10.24-18.27 10.24z" fill="#0e2947"/><path d="m440.54 558.35c-.81 0-1.5-.6-1.62-1.4l-1.63-11.44c-.06-.46.07-.92.36-1.28s.72-.57 1.19-.59l75.17-3.27c.81-.07 1.59.59 1.69 1.43l1.63 13.07c.06.46-.08.92-.39 1.27-.3.35-.74.56-1.2.57l-75.17 1.63h-.04zm.24-11.52 1.17 8.22 71.91-1.56-1.22-9.78z" fill="#0e2947"/><path d="m507.54 190.68h-67c-.9 0-1.63-.73-1.63-1.63s.73-1.63 1.63-1.63h67c.9 0 1.63.73 1.63 1.63s-.73 1.63-1.63 1.63z" fill="#0e2947"/><path d="m495.4 431.71c-2.27 0-7.42-5.44-15.32-16.19-9.82 9.74-15.74 14.68-17.61 14.68-.52 0-1.22-.33-1.52-.74-1.05-1.4-2.83-10.38-3.99-16.76-5.33 2.07-19.48 7.43-23.33 7.43-1.97 0-2.34-1.29-2.41-1.68-.35-2.14 3.13-14.72 5.09-21.54-21.85-5.47-22.21-7.6-22.38-8.63-.15-.92-.51-3.02 15.22-14.83-6.68-4-17.81-11.41-17.06-15.88.74-4.47 12.55-7.98 19.41-9.66-10.99-20.76-9.6-21.8-8.48-22.64.57-.42 1.28-.48 1.91-.48 3.62 0 14.97 2.65 19.58 3.77.79-22.42 2.1-22.75 3.38-23.07.13-.03.33-.06.46-.06 1.54 0 8.75 4.26 21.44 12.67 5.89-19.67 7.71-19.67 8.93-19.67.21 0 .51.06.7.14.66.27 2.39.96 9.44 19.06 4.81-2.59 16.32-8.59 19.66-8.59.46 0 .85.08 1.19.25.97.48 3.18 1.59-.78 18.27 4.23-.58 13.05-1.7 18.38-1.7 2.15 0 5.74 0 5.74 2.54 0 2.4-4.84 12.14-7.72 17.73 8.47 2.4 17.91 5.59 19 8.12.47 1.09 1.54 3.6-15.96 16.42 6.67 4.65 15.68 11.83 14.57 15.92-1.1 4.04-13.74 6.96-22.59 8.52 3.4 6.3 7.74 15.37 6.29 18.27-.84 1.69-3.27 1.91-5.53 1.91-5.23 0-13.57-1.56-16.91-2.22-1.69 5.1-5.52 16.25-7.3 18.03-.39.39-.92.6-1.48.6zm-15.12-20.31s.09 0 .13 0c.48.04.91.28 1.19.67 4.9 6.75 11.04 14.3 13.41 16.06 1.34-2.49 4.26-10.49 6.53-17.45.26-.79 1.07-1.27 1.89-1.09.11.02 11.5 2.45 17.67 2.45 1.6 0 2.32-.17 2.62-.27.14-2.12-3.58-10.36-7.33-17.08-.26-.46-.28-1.02-.04-1.5.23-.48.68-.81 1.2-.9 11.22-1.84 21.41-4.86 22.25-6.58.11-1.71-6.98-8.11-15.17-13.64-.44-.3-.71-.79-.72-1.33 0-.53.25-1.04.68-1.35 7.22-5.2 15.27-11.81 16.53-14.06-1.77-1.38-10.78-4.45-18.59-6.6-.47-.13-.87-.47-1.06-.92-.2-.45-.18-.97.05-1.41 3.52-6.74 7.2-14.4 8.08-17.18-.45-.06-1.17-.11-2.29-.11-6.82 0-20.16 1.98-20.3 2-.54.08-1.08-.11-1.45-.52-.37-.4-.51-.96-.38-1.49 1.66-6.65 3.07-14.6 2.75-16.87-2.56.51-12.59 5.52-19.15 9.13-.41.22-.9.26-1.34.1s-.79-.51-.96-.95c-2.68-6.97-6.04-14.88-7.76-17.92-1.55 3.11-4.34 11.32-6.45 18.53-.14.5-.52.9-1.01 1.07-.49.18-1.03.11-1.46-.18-8.17-5.45-17.32-11.24-20.61-12.91-.63 3.35-1.24 12.91-1.51 21.54-.02.49-.25.95-.65 1.25-.39.3-.9.4-1.38.28-4.31-1.08-15.66-3.75-19.93-4.11 1.07 3.35 5.41 12.28 9.63 20.16.24.45.25.98.04 1.45-.21.46-.63.8-1.12.91-9.64 2.18-18.69 5.76-18.99 7.51-.07 1.88 8.16 8.32 17.6 13.77.47.28.78.77.81 1.32s-.22 1.08-.66 1.4c-6.48 4.79-13.75 10.74-15.56 13.02 2.7 1.48 12.61 4.41 21.23 6.53.43.11.8.38 1.02.77s.28.84.16 1.27c-2.37 8.13-4.76 17.16-5.34 20.56 4.32-.74 16.01-5.02 23.04-7.82.46-.18.96-.15 1.39.09s.73.66.81 1.14c1.15 6.44 2.59 13.56 3.41 16.33 2.55-1.79 9.72-8.43 15.91-14.62.31-.31.72-.48 1.15-.48z" fill="#0e2947"/><circle cx="477.89" cy="368.13" fill="#ffc629" r="41.83"/><path d="m481.1 339.31s6.07 1.23 6.95 4.2" fill="#fff"/><path d="m488.05 345.14c-.7 0-1.35-.46-1.56-1.17-.39-1.33-3.57-2.64-5.72-3.07-.88-.18-1.45-1.04-1.27-1.92s1.06-1.45 1.92-1.27c1.17.24 7.09 1.62 8.19 5.33.25.86-.24 1.77-1.1 2.03-.16.05-.31.07-.46.07z" fill="#0e2947"/><path d="m486.03 352.17s6.07 1.23 6.95 4.2" fill="#fff"/><path d="m492.98 358.01c-.7 0-1.35-.46-1.56-1.17-.39-1.33-3.57-2.64-5.72-3.07-.88-.18-1.45-1.04-1.27-1.92s1.06-1.45 1.92-1.27c1.17.24 7.09 1.62 8.19 5.33.25.86-.24 1.77-1.1 2.03-.16.04-.31.07-.46.07z" fill="#0e2947"/><path d="m499.83 352.04s5.76 2.27 6.12 5.35" fill="#fff"/><path d="m505.94 359.02c-.81 0-1.52-.61-1.62-1.44-.16-1.37-3.06-3.22-5.09-4.02-.84-.33-1.25-1.28-.92-2.11.33-.84 1.27-1.25 2.11-.92 1.11.44 6.69 2.83 7.14 6.68.1.89-.54 1.7-1.44 1.8-.06 0-.12.01-.19.01z" fill="#0e2947"/><path d="m470.24 348.81s6.07 1.23 6.95 4.2" fill="#fff"/><path d="m477.19 354.65c-.7 0-1.35-.46-1.56-1.17-.41-1.38-3.65-2.65-5.72-3.07-.88-.18-1.45-1.04-1.27-1.92s1.03-1.45 1.92-1.27c1.17.24 7.09 1.62 8.19 5.34.25.86-.24 1.77-1.1 2.03-.16.05-.31.07-.46.07z" fill="#0e2947"/><path d="m463.08 338.53s6.19-.16 7.72 2.53" fill="#fff"/><path d="m470.81 342.7c-.57 0-1.12-.3-1.42-.83-.71-1.25-4.18-1.79-6.26-1.7h-.04c-.88 0-1.6-.7-1.63-1.59-.02-.9.69-1.65 1.59-1.67 1.24-.03 7.27-.02 9.18 3.36.45.78.17 1.78-.61 2.22-.25.14-.53.21-.81.21z" fill="#0e2947"/></svg>