<svg viewBox="0 0 914 815" xmlns="http://www.w3.org/2000/svg" xmlns:xlink="http://www.w3.org/1999/xlink"><clipPath id="a"><path d="m0 0h914v815h-914z"/></clipPath><radialGradient id="b" cx="482.8" cy="370.5" gradientTransform="matrix(.81 0 0 .65 85.71 142.66)" gradientUnits="userSpaceOnUse" r="544.72"><stop offset="0" stop-color="#ffc629"/><stop offset="1" stop-color="#ffc629" stop-opacity="0"/></radialGradient><g clip-path="url(#a)"><path d="m1123.83-179.75h-1298.36v1040.7h1300.95v-1040.7zm-131 2.08v101.68h-127.11v-101.68zm-518.83 518.79v101.68h-127.11v-101.68zm-127.11-2.08v-101.68h127.11v101.68zm129.71 2.08h127.11v101.68h-127.11zm0-2.08v-101.68h127.11v101.68zm0-103.76v-101.68h127.11v101.68zm-2.59 0h-127.11v-101.68h127.11zm-129.71 0h-127.11v-101.68h127.11zm0 2.08v101.68h-127.11v-101.68zm0 103.76v101.68h-127.11v-101.68zm0 103.76v101.68h-127.11v-101.68zm2.59 0h127.11v101.68h-127.11zm129.71 0h127.11v101.68h-127.11zm129.71 0h127.11v101.68h-127.11zm0-2.08v-101.68h127.11v101.68zm0-103.76v-101.68h127.11v101.68zm0-103.76v-101.68h127.11v101.68zm0-103.76v-101.67h127.11v101.68h-127.11zm-2.59 0h-127.11v-101.67h127.11v101.68zm-129.71 0h-127.11v-101.67h127.11v101.68zm-129.71 0h-127.11v-101.67h127.11v101.68zm-129.71 0h-127.11v-101.67h127.11v101.68zm0 2.08v101.68h-127.11v-101.68zm0 103.76v101.68h-127.11v-101.68zm0 103.76v101.68h-127.11v-101.68zm0 103.76v101.68h-127.11v-101.68zm0 103.76v101.68h-127.11v-101.68zm2.59 0h127.11v101.68h-127.11zm129.71 0h127.11v101.68h-127.11zm129.71 0h127.11v101.68h-127.11zm129.71 0h127.11v101.68h-127.11zm129.71 0h127.11v101.68h-127.11zm0-2.08v-101.68h127.11v101.68zm0-103.76v-101.68h127.11v101.68zm0-103.76v-101.68h127.11v101.68zm0-103.76v-101.68h127.11v101.68zm0-103.76v-101.67h127.11v101.68h-127.11zm0-103.76v-101.68h127.11v101.69h-127.11zm-2.59 0h-127.11v-101.68h127.11v101.69zm-129.71 0h-127.11v-101.68h127.11v101.69zm-129.71 0h-127.11v-101.68h127.11v101.69zm-129.71 0h-127.11v-101.68h127.11v101.69zm-129.71 0h-127.11v-101.68h127.11v101.69zm-129.71 0h-127.11v-101.68h127.11v101.69zm0 2.08v101.68h-127.11v-101.67h127.11zm0 103.76v101.68h-127.11v-101.68zm0 103.76v101.68h-127.11v-101.68zm0 103.76v101.68h-127.11v-101.68zm0 103.76v101.68h-127.11v-101.68zm0 103.76v101.68h-127.11v-101.68zm0 103.76v101.68h-127.11v-101.68zm2.59 0h127.11v101.68h-127.11zm129.71 0h127.11v101.68h-127.11zm129.71 0h127.11v101.68h-127.11zm129.71 0h127.11v101.68h-127.11zm129.71 0h127.11v101.68h-127.11zm129.71 0h127.11v101.68h-127.11zm129.71 0h127.11v101.68h-127.11zm0-2.08v-101.68h127.11v101.68zm0-103.76v-101.68h127.11v101.68zm0-103.76v-101.68h127.11v101.68zm0-103.76v-101.68h127.11v101.68zm0-103.76v-101.68h127.11v101.68zm0-103.76v-101.67h127.11v101.68h-127.11zm0-103.76v-101.68h127.11v101.69h-127.11zm-2.59-205.44v101.68h-127.11v-101.68zm-129.71 0v101.68h-127.11v-101.68zm-129.71 0v101.68h-127.11v-101.68zm-129.71 0v101.68h-127.11v-101.68zm-129.71 0v101.68h-127.11v-101.68zm-129.71 0v101.68h-127.11v-101.68zm-129.71 0v101.68h-127.11v-101.68zm-256.82 0h127.12v101.68h-127.11v-101.68zm0 103.76h127.12v101.69h-127.11v-101.68zm0 103.76h127.12v101.68h-127.11v-101.67zm0 103.76h127.12v101.68h-127.11v-101.68zm0 103.76h127.12v101.68h-127.11v-101.68zm0 103.76h127.12v101.68h-127.11v-101.68zm0 103.76h127.12v101.68h-127.11v-101.68zm0 103.76h127.12v101.68h-127.11v-101.68zm0 103.76h127.12v101.68h-127.11v-101.68zm0 206.48v-102.72h127.12v102.72h-127.11zm129.71 0v-102.72h127.11v102.72h-127.11zm129.71 0v-102.72h127.11v102.72zm129.71 0v-102.72h127.11v102.72zm129.71 0v-102.72h127.11v102.72zm129.71 0v-102.72h127.11v102.72zm129.71 0v-102.72h127.11v102.72zm129.71 0v-102.72h127.11v102.72zm129.71 0v-102.72h127.11v102.72zm258.11 0h-128.41v-102.72h128.41zm0-104.8h-128.41v-101.68h128.41zm0-103.76h-128.41v-101.68h128.41zm0-103.76h-128.41v-101.68h128.41zm0-103.76h-128.41v-101.68h128.41zm0-103.76h-128.41v-101.68h128.41zm0-103.76h-128.41v-101.68h128.41zm0-103.76h-128.41v-101.67h128.41v101.68zm0-103.76h-128.41v-101.68h128.41v101.69zm0-103.76h-128.41v-101.68h128.41z" fill="url(#b)"/></g><path d="m274.26 309.31c-.74 0-1.33-.48-1.32-1.07l.13-17.93c0-.59.6-1.06 1.33-1.06.74 0 1.33.48 1.32 1.07l-.13 17.93c0 .59-.6 1.06-1.33 1.06z" fill="#0e2947"/><path d="m265.23 305.4c-.42 0-.83-.16-1.09-.46-.42-.48-.27-1.15.33-1.48l18.5-10.32c.6-.33 1.43-.22 1.85.26s.27 1.15-.33 1.48l-18.5 10.32c-.23.13-.5.19-.76.19z" fill="#0e2947"/><path d="m281.48 306.15c-.35 0-.7-.11-.97-.33l-13.99-11.83c-.5-.43-.48-1.1.05-1.51.54-.41 1.38-.38 1.88.04l13.99 11.83c.5.43.48 1.1-.05 1.51-.26.2-.59.29-.92.29z" fill="#0e2947"/><path d="m262.7 300.16c-.73 0-1.32-.47-1.33-1.05 0-.59.58-1.07 1.32-1.08l21.55-.16c.74 0 1.33.47 1.34 1.05 0 .59-.58 1.07-1.32 1.08l-21.55.16z" fill="#0e2947"/><path d="m289.21 499.15h-.04c-5.08-.02-9.19-3.33-9.17-7.4.02-4.04 4.15-7.33 9.21-7.33 2.5 0 4.81.78 6.54 2.18s2.68 3.25 2.67 5.22c-.02 4.04-4.16 7.33-9.21 7.33zm.03-12.6c-3.62 0-6.56 2.34-6.57 5.21-.02 2.89 2.91 5.25 6.51 5.26l.03 1.07v-1.07c3.59 0 6.53-2.34 6.55-5.21 0-1.4-.67-2.71-1.9-3.71-1.23-.99-2.87-1.54-4.62-1.55z" fill="#0e2947"/><path d="m614.97 502.18c-.74 0-1.33-.48-1.32-1.07l.13-17.93c0-.59.6-1.06 1.33-1.06.74 0 1.33.48 1.32 1.07l-.13 17.93c0 .59-.6 1.06-1.33 1.06z" fill="#0e2947"/><path d="m605.94 498.26c-.42 0-.83-.16-1.09-.46-.42-.48-.27-1.15.33-1.48l18.5-10.32c.6-.33 1.43-.22 1.85.26s.27 1.15-.33 1.48l-18.5 10.32c-.23.13-.5.19-.76.19z" fill="#0e2947"/><path d="m622.19 499.02c-.35 0-.7-.11-.97-.33l-13.99-11.83c-.5-.43-.48-1.1.05-1.51.54-.41 1.38-.38 1.88.04l13.99 11.83c.5.43.48 1.1-.05 1.51-.26.2-.59.29-.92.29z" fill="#0e2947"/><path d="m603.41 493.02c-.73 0-1.32-.47-1.33-1.05 0-.59.58-1.07 1.32-1.08l21.55-.16c.74 0 1.33.47 1.34 1.05 0 .59-.58 1.07-1.32 1.08l-21.55.16z" fill="#0e2947"/><path d="m162.19 378.13c-.95 0-1.67-.54-1.75-1.31 0-.18.26-4.4.78-9.59-8.4-2.04-9.81-3.32-10.04-4.41-.07-.31-.1-1.1 1.01-1.74 2.05-1.17 7.02-2.72 10.26-3.66 1.64-10.36 3.26-11.23 4.91-11.23.32 0 .8.07 1.3.38 1.67 1.06 5.39 4.31 8.51 7.16 3.5-.73 7.9-1.53 10.55-1.53 1.44 0 2.32.23 2.86.73.36.34.51.79.42 1.25-.08.41-.33 1.62-6.07 7.01 7.56 7.68 7.17 8.84 6.96 9.48-.14.43-.51.76-1.02.92-.34.11-.77.15-1.41.15-2.39 0-8.07-.7-14.58-1.8-10.05 8.17-12.02 8.17-12.68 8.17zm1.64-10.3c-.33 3.3-.54 6.16-.65 7.71 1.41-.76 4.13-2.55 8.6-6.12-2.83-.51-5.53-1.05-7.95-1.59zm13.23.31c5.13.82 9.72 1.39 11.93 1.47-.52-.87-1.94-2.78-5.84-6.77-1.89 1.72-3.98 3.54-6.08 5.3zm-13.01-2.48c2.96.67 6.35 1.34 9.94 1.96 2.58-2.12 5.19-4.39 7.47-6.48-1.62-1.61-3.4-3.32-5.22-5.01-3.65.8-7.62 1.8-11.35 2.85-.29 2-.57 4.24-.84 6.69zm-9.95-3.05c.64.39 2.44 1.22 7.35 2.44.21-1.88.42-3.64.65-5.26-3.73 1.11-6.59 2.13-7.99 2.82zm25-7.08c1.43 1.34 2.82 2.68 4.12 3.97 2.9-2.76 4.3-4.37 4.85-5.16-.1 0-.22 0-.36 0-1.71 0-4.72.42-8.61 1.2zm-11.65-6.98c-.43.67-1.27 2.59-2.2 8.07 2.99-.82 6.1-1.6 9.04-2.27-2.93-2.66-5.49-4.83-6.85-5.8z" fill="#0e2947"/><path d="m701.27 305.02c-.98 0-1.92 0-4.51-8.26-8.76-1.35-9.5-2.14-9.78-2.45-.25-.27-.35-.75-.24-1.07.16-.45.53-1.49 10.53-4.72 3.59-7.49 4.81-7.49 5.62-7.49.42 0 1 .24 1.25.51.64.69 1.23 2.48 2.11 5.36.28.9.61 1.98.8 2.46.53.19 1.68.52 2.64.79 5.14 1.47 6.47 1.98 6.71 2.96.09.37-.14.91-.49 1.16-1.04.75-6.02 2.23-8.62 2.97-4.24 7.71-5.14 7.75-5.94 7.78-.02 0-.05 0-.08 0zm-10.9-11.63c1.75.4 4.94.98 7.72 1.4.51.08.92.39 1.05.79.71 2.31 1.64 4.93 2.31 6.43.97-1.4 2.44-3.87 3.63-6.05.15-.27.43-.48.78-.58 2.38-.67 5.06-1.49 6.74-2.08-1.17-.39-2.77-.85-3.8-1.15-2.94-.84-3.49-1.02-3.87-1.43-.33-.35-.53-.95-1.27-3.32-.27-.89-.7-2.27-1.07-3.29-.87 1.33-2.09 3.6-3.04 5.6-.13.28-.41.5-.75.61-3.09.99-6.59 2.24-8.43 3.07z" fill="#0e2947"/><path d="m451.09 549.28s-12.61-65.55-9.91-92.21c1.96-19.33-71.14-53.31-71.14-53.31s11.71 6.48-32.42-18.01c-56.02-31.1-29.72 5.76-29.72 5.76s-29.72-19.45-47.73-56.19c-10.3-21.01-30.62 21.61-6.3 45.38 24.31 23.77-11.07-39.35-19.81-26.65-24.31 35.3 22.51 63.39 22.51 63.39s-31.77-51.77-35.12-38.9c-4.5 17.29 4.5 61.95 58.53 81.4s59.43 8.64 62.14 25.93c2.7 17.29 3.6 65.55 3.6 65.55l105.36-2.16z" fill="#e58f4e"/><path d="m297.1 421.4c-.23 0-.46-.05-.67-.15-50.44-23.78-55.54-70.96-55.58-71.43-.06-.59.49-1.1 1.22-1.14.74-.04 1.37.39 1.43.98.04.46 5.06 46.56 54.28 69.76.63.3.84.95.47 1.46-.25.34-.69.52-1.15.52z" fill="#0e2947"/><path d="m292.6 439.41c-.1 0-.2 0-.31-.03-49.73-9.4-67.45-61.11-67.62-61.64-.19-.57.23-1.15.95-1.3.71-.15 1.44.19 1.63.76.17.51 17.49 51 65.66 60.11.72.14 1.16.71.99 1.28-.15.49-.69.82-1.3.82z" fill="#0e2947"/><path d="m348.44 423.56c-.11 0-.21-.01-.32-.03-3.75-.72-43.73-30.14-47.1-43.65-.91-3.65.86-5.55 2.5-6.51 10.42-6.07 61.55 25.9 67.35 29.56.58.36.67 1.03.22 1.5-.45.46-1.29.54-1.87.17-21.28-13.45-57.51-33.36-64.13-29.51-1.34.78-1.86 2-1.59 3.74 2.01 12.73 41.88 41.56 45.3 42.65.72.14 1.12.7.95 1.28-.15.49-.71.81-1.32.81z" fill="#0e2947"/><path d="m318.72 400.87c-.44 0-.86-.17-1.12-.48-.4-.49-.22-1.15.39-1.47 1.14-.59 1.8-1.43 2.03-2.56.99-4.93-6.55-13.78-9.55-16.77-.46-.46-.37-1.13.21-1.5s1.41-.29 1.87.17c.47.47 11.48 11.58 10.1 18.44-.35 1.74-1.43 3.08-3.21 4.01-.22.12-.48.17-.72.17z" fill="#0e2947"/><path d="m329.53 410.23c-.43 0-.85-.17-1.11-.47-.41-.49-.25-1.15.36-1.48.05-.03 5.01-2.75 6.65-8.02.18-.57.9-.92 1.61-.77.71.14 1.15.72.97 1.29-1.9 6.09-7.52 9.15-7.76 9.27s-.48.18-.74.18z" fill="#0e2947"/><path d="m339.43 415.99c-.22 0-.44-.04-.64-.13-.64-.28-.87-.93-.52-1.45.04-.06 4.23-6.17 3.02-10.03-.18-.57.25-1.15.97-1.29.71-.14 1.44.2 1.61.77 1.46 4.68-3.08 11.3-3.28 11.58-.24.35-.7.55-1.16.55z" fill="#0e2947"/><path d="m251.18 372.05c-.68 0-1.26-.41-1.32-.96-.07-.59.47-1.11 1.2-1.16.78-.06 1.37-.35 1.86-.92 3.44-4-.36-17.92-2.12-22.94-.2-.57.22-1.15.92-1.31.71-.16 1.44.17 1.64.74.68 1.95 6.5 19.18 1.75 24.72-.93 1.08-2.25 1.72-3.8 1.84-.04 0-.09 0-.13 0z" fill="#0e2947"/><path d="m235.87 395.1c-.3 0-.61-.08-.86-.25-.56-.38-.64-1.05-.16-1.5 8.76-8.34-.94-22.42-1.04-22.57-.36-.51-.13-1.16.51-1.45s1.45-.11 1.81.41c.44.63 10.69 15.52.76 24.98-.26.25-.64.38-1.02.38z" fill="#0e2947"/><path d="m266.94 397.26c-.45 0-.89-.18-1.14-.52-.37-.5-.18-1.14.43-1.45.09-.05 2.31-1.32 7.26-7.25.41-.49 1.23-.62 1.85-.3.61.33.78.99.37 1.48-5.41 6.49-7.82 7.76-8.08 7.89-.21.1-.45.15-.68.15z" fill="#0e2947"/><path d="m248.48 415.27c-.45 0-.89-.18-1.14-.52-.37-.5-.18-1.14.43-1.45.09-.05 2.31-1.32 7.26-7.25.41-.49 1.23-.62 1.85-.3.61.33.78.99.37 1.48-5.41 6.49-7.82 7.76-8.08 7.89-.21.1-.45.15-.68.15z" fill="#0e2947"/><path d="m271.44 404.11c-.45 0-.89-.18-1.14-.52-.38-.5-.17-1.16.46-1.46 3.43-1.65 7.96-7.79 9.41-10.03.34-.52 1.14-.72 1.8-.45.65.27.9.92.56 1.44-.23.35-5.63 8.58-10.4 10.87-.21.1-.45.15-.68.15z" fill="#0e2947"/><path d="m254.33 420.68c-.45 0-.89-.18-1.14-.52-.38-.5-.17-1.16.46-1.46 3.43-1.64 7.95-7.79 9.41-10.02.34-.52 1.15-.72 1.8-.45s.9.92.56 1.44c-.23.35-5.63 8.58-10.4 10.86-.21.1-.45.15-.68.15z" fill="#0e2947"/><path d="m244.43 437.97c-.45 0-.89-.18-1.14-.52-.38-.5-.17-1.16.46-1.46 3.43-1.65 7.96-7.79 9.41-10.03.34-.52 1.14-.72 1.8-.45.65.27.9.92.56 1.44-.23.35-5.63 8.58-10.4 10.87-.21.1-.45.15-.68.15z" fill="#0e2947"/><path d="m224.61 408.79c-.61 0-1.16-.34-1.3-.84-.15-.57.3-1.14 1.01-1.27.13-.02 2.37-.48 3.69-2.54 1.68-2.61 1.16-6.71-1.48-11.87-.28-.55.05-1.17.73-1.39.68-.23 1.46.04 1.74.58 3.01 5.87 3.46 10.48 1.34 13.71-1.93 2.94-5.3 3.56-5.44 3.58-.1.02-.19.02-.28.02z" fill="#0e2947"/><path d="m240.37 432.2c-.17 0-.34-.03-.51-.08-.68-.22-1-.85-.72-1.39.13-.26 3.34-6.42 7.19-8.73.59-.35 1.42-.26 1.86.21s.32 1.14-.27 1.49c-2.71 1.63-5.48 6.21-6.32 7.84-.21.41-.71.66-1.23.66z" fill="#0e2947"/><path d="m355.77 521.28c-.48 0-.94-.21-1.18-.57-.15-.22-3.57-5.48-1.06-9.16.35-.52 1.16-.71 1.8-.43.65.28.89.93.54 1.44-1.52 2.24.26 5.92 1.08 7.15.34.52.1 1.16-.55 1.44-.2.08-.41.12-.62.12z" fill="#0e2947"/><path d="m357.54 508.25c-.48 0-.94-.21-1.18-.57-.15-.22-3.56-5.48-1.06-9.16.35-.52 1.16-.71 1.8-.43.65.28.89.93.54 1.44-1.52 2.24.26 5.92 1.08 7.15.34.52.1 1.16-.55 1.44-.2.08-.41.12-.62.12z" fill="#0e2947"/><path d="m365.25 531.68c-.48 0-.94-.21-1.18-.57-.15-.22-3.56-5.48-1.06-9.16.35-.52 1.16-.71 1.8-.43.65.28.89.93.54 1.44-1.52 2.24.26 5.92 1.08 7.15.34.52.1 1.16-.55 1.44-.2.08-.41.12-.62.12z" fill="#0e2947"/><path d="m355.57 536.87c-.48 0-.94-.21-1.18-.57-.15-.22-3.57-5.48-1.06-9.17.35-.52 1.16-.71 1.8-.43.65.28.89.93.54 1.44-1.51 2.23.27 5.92 1.08 7.15.34.52.09 1.16-.56 1.44-.2.08-.41.12-.62.12z" fill="#0e2947"/><path d="m362.13 545.16c-.48 0-.94-.21-1.18-.57-.15-.22-3.57-5.48-1.06-9.16.35-.52 1.16-.71 1.8-.43.65.28.89.93.54 1.44-1.52 2.24.26 5.92 1.08 7.15.34.52.1 1.16-.55 1.44-.2.08-.41.12-.62.12z" fill="#0e2947"/><path d="m363.83 518.54c-.48 0-.94-.21-1.18-.57-.15-.22-3.57-5.48-1.06-9.16.35-.52 1.16-.71 1.8-.43s.89.93.54 1.44c-1.52 2.24.26 5.92 1.08 7.15.34.52.1 1.16-.55 1.44-.2.08-.41.12-.62.12z" fill="#0e2947"/><path d="m472.28 549.41s12.61-65.55 9.91-92.21c-1.96-19.33 71.14-53.31 71.14-53.31s-11.71 6.48 32.42-18.01c56.02-31.1 29.72 5.76 29.72 5.76s29.72-19.45 47.73-56.19c10.3-21.01 30.62 21.61 6.3 45.38-24.31 23.77 11.07-39.35 19.81-26.65 24.31 35.3-22.51 63.39-22.51 63.39s31.77-51.77 35.12-38.9c4.5 17.29-4.5 61.95-58.53 81.4s-59.43 8.64-62.14 25.93c-2.7 17.29-3.6 65.55-3.6 65.55l-105.36-2.16z" fill="#e58f4e"/><g fill="#0e2947"><path d="m626.27 421.53c-.46 0-.9-.19-1.15-.52-.37-.51-.16-1.16.47-1.46 49.26-23.22 54.24-69.3 54.28-69.76.06-.59.68-1.02 1.43-.98.73.04 1.28.56 1.22 1.14-.05.47-5.14 47.65-55.58 71.43-.21.1-.44.15-.67.15z"/><path d="m630.77 439.54c-.6 0-1.15-.33-1.3-.82-.17-.57.27-1.15.99-1.28 48.2-9.11 65.49-59.6 65.66-60.11.19-.57.92-.9 1.63-.76.71.15 1.13.73.95 1.3-.17.52-17.89 52.23-67.62 61.64-.1.02-.21.03-.31.03z"/><path d="m574.94 423.69c-.6 0-1.15-.33-1.29-.82-.17-.57.27-1.15.99-1.28 3.36-1.07 43.23-29.9 45.24-42.63.27-1.73-.24-2.96-1.59-3.74-6.63-3.85-42.85 16.06-64.13 29.51-.58.37-1.41.29-1.87-.17s-.36-1.13.22-1.5c5.8-3.67 56.93-35.64 67.35-29.56 1.64.96 3.41 2.86 2.5 6.51-3.37 13.51-43.35 42.94-47.1 43.65-.1.02-.21.03-.31.03z"/><path d="m604.65 401c-.25 0-.5-.06-.72-.17-1.78-.92-2.86-2.27-3.21-4.01-1.38-6.87 9.63-17.97 10.1-18.44.46-.46 1.3-.53 1.87-.17.57.37.67 1.04.21 1.5-2.99 2.99-10.54 11.84-9.55 16.77.23 1.13.89 1.97 2.03 2.56.62.32.79.98.39 1.47-.26.31-.68.48-1.12.48z"/><path d="m593.85 410.36c-.25 0-.51-.06-.74-.18-.24-.13-5.85-3.18-7.76-9.27-.18-.57.25-1.15.97-1.29.71-.15 1.44.2 1.61.77 1.66 5.3 6.6 7.99 6.65 8.02.61.33.78.99.37 1.48-.26.31-.68.47-1.11.47z"/><path d="m583.94 416.13c-.47 0-.92-.2-1.16-.55-.2-.28-4.74-6.9-3.28-11.58.18-.57.9-.92 1.61-.77.71.14 1.15.72.97 1.29-1.21 3.86 2.98 9.97 3.02 10.03.36.51.12 1.16-.52 1.45-.21.09-.43.13-.64.13z"/><path d="m672.2 372.18s-.08 0-.13 0c-1.56-.12-2.87-.75-3.8-1.84-4.76-5.54 1.07-22.78 1.75-24.72.2-.57.94-.89 1.64-.74.71.16 1.12.75.92 1.31-1.75 5.02-5.55 18.94-2.12 22.95.49.57 1.08.86 1.86.92.73.06 1.27.58 1.2 1.16-.07.55-.64.96-1.32.96z"/><path d="m687.5 395.24c-.38 0-.76-.13-1.02-.38-9.93-9.46.32-24.35.76-24.98.36-.51 1.17-.7 1.81-.41s.87.94.51 1.45c-.1.14-9.79 14.24-1.04 22.57.47.45.4 1.12-.16 1.5-.25.17-.55.25-.86.25z"/><path d="m656.42 397.4c-.23 0-.46-.05-.67-.15-.26-.12-2.66-1.39-8.08-7.89-.41-.49-.24-1.15.37-1.48s1.44-.19 1.85.3c5.03 6.03 7.24 7.24 7.26 7.26.6.32.79.97.4 1.46-.25.32-.68.5-1.13.5z"/><path d="m674.88 415.41c-.23 0-.46-.05-.67-.15-.26-.12-2.66-1.39-8.08-7.89-.41-.49-.24-1.15.37-1.48s1.44-.19 1.85.3c5.03 6.03 7.24 7.24 7.26 7.26.6.32.79.97.4 1.46-.25.32-.68.5-1.13.5z"/><path d="m651.93 404.24c-.23 0-.47-.05-.68-.15-4.77-2.29-10.17-10.52-10.4-10.86-.34-.52-.09-1.16.56-1.44.66-.27 1.46-.07 1.8.45 1.46 2.23 5.98 8.38 9.41 10.02.63.3.83.96.46 1.46-.25.33-.69.52-1.14.52z"/><path d="m669.04 420.81c-.23 0-.47-.05-.68-.15-4.77-2.29-10.17-10.52-10.4-10.87-.34-.52-.09-1.16.56-1.44.66-.27 1.46-.07 1.8.45 1.46 2.23 5.98 8.38 9.41 10.03.63.3.83.96.46 1.46-.25.33-.69.52-1.14.52z"/><path d="m678.95 438.1c-.23 0-.47-.05-.68-.15-4.77-2.29-10.17-10.52-10.4-10.87-.34-.52-.09-1.16.56-1.44.66-.27 1.46-.07 1.8.45 1.46 2.23 5.98 8.38 9.41 10.03.63.3.83.96.46 1.46-.25.33-.69.52-1.14.52z"/><path d="m698.76 408.92c-.09 0-.19 0-.28-.02-.14-.02-3.51-.64-5.44-3.58-2.12-3.23-1.67-7.84 1.34-13.71.28-.54 1.06-.81 1.74-.58.68.22 1.01.84.73 1.39-2.66 5.19-3.16 9.3-1.45 11.91 1.34 2.04 3.63 2.49 3.65 2.49.72.12 1.18.69 1.02 1.27-.14.5-.69.84-1.3.84z"/><path d="m683 432.34c-.52 0-1.02-.25-1.23-.66-.03-.06-3.06-5.88-6.32-7.84-.59-.35-.71-1.02-.27-1.49s1.28-.57 1.86-.21c3.85 2.31 7.05 8.47 7.19 8.73.28.54-.04 1.17-.72 1.39-.17.05-.34.08-.51.08z"/><path d="m565.77 530.45c-.28 0-.56-.07-.8-.22-.59-.35-.7-1.02-.26-1.49 1.91-2.02.85-5.88.28-7.2-.24-.56.13-1.16.82-1.36.7-.18 1.45.1 1.69.66.1.24 2.5 5.84-.67 9.19-.26.28-.66.42-1.06.42z"/><path d="m561.57 543.11c-.28 0-.56-.07-.8-.22-.59-.35-.7-1.02-.26-1.49 1.91-2.02.85-5.88.28-7.2-.24-.56.13-1.16.82-1.36.7-.18 1.45.1 1.69.66.1.24 2.5 5.84-.67 9.19-.26.28-.66.42-1.06.42z"/><path d="m558.35 519.03c-.28 0-.56-.07-.8-.22-.59-.36-.7-1.02-.26-1.49 1.91-2.02.85-5.88.28-7.2-.24-.56.13-1.16.82-1.36.7-.19 1.45.1 1.69.66.1.24 2.49 5.84-.67 9.19-.26.28-.66.42-1.06.42z"/><path d="m568.9 515.05c-.28 0-.56-.07-.8-.22-.59-.36-.7-1.02-.26-1.49 1.92-2.03.85-5.89.28-7.2-.24-.56.12-1.16.82-1.36.69-.19 1.45.1 1.7.66.1.24 2.49 5.84-.67 9.19-.26.28-.66.42-1.06.42z"/><path d="m563.97 506.07c-.28 0-.56-.07-.8-.22-.59-.35-.7-1.02-.26-1.49 1.91-2.02.85-5.88.28-7.2-.24-.56.13-1.16.82-1.36.7-.18 1.45.1 1.69.66.1.24 2.5 5.84-.67 9.19-.26.28-.66.42-1.06.42z"/><path d="m557.28 532.18c-.28 0-.56-.07-.8-.22-.59-.35-.7-1.02-.26-1.49 1.91-2.02.85-5.88.28-7.2-.24-.56.13-1.16.82-1.36.7-.19 1.45.1 1.69.66.1.24 2.5 5.84-.67 9.19-.26.28-.66.42-1.06.42z"/><path d="m201.09 208.56c-.38 0-.75-.13-1.01-.39-.1-.1-8.54-11.12-7.3-12.65.72-.89 1.12-1.38 17.13 5.14.65.27.92.91.58 1.43-.33.52-1.14.73-1.78.46-4.69-1.91-9.87-3.91-12.71-4.86 1.69 2.88 5.51 8.44 6.17 9.17.42.47.32 1.13-.26 1.48-.25.15-.53.22-.82.22z"/></g><path d="m219.95 212.6s4.35-16.06-7.04-15.43c-15.78.87-32.8 28.88-7.92 41.13s40.93-3.37 40.93-3.37l-13.64-5.8s13.08-5.24 14.26-11.58-8.88-2.7-8.88-2.7 14.52-12.09 6.75-14.21-24.46 11.97-24.46 11.97z" fill="#2a7de1"/><path d="m209.62 208.62c-.36 0-.71-.04-1.04-.13-.67-.18-1.15-.58-1.35-1.12-.62-1.7 2.18-4.85 3.91-6.58.46-.46 1.29-.53 1.86-.17.57.37.67 1.03.21 1.49-1.65 1.65-3.08 3.53-3.37 4.38 1.1-.12 3.29-1.26 4.83-2.41.54-.4 1.37-.38 1.88.05.5.43.47 1.1-.06 1.5-1.02.76-4.22 2.98-6.87 2.98z" fill="#0e2947"/><path d="m228.5 228.5c-.5 0-.99-.23-1.21-.62-.3-.53 0-1.16.66-1.41 3.12-1.13 8.25-3.72 8.7-5.83.04-.19.02-.26.02-.26-.61-.27-3.95.45-6.83 1.55-.53.2-1.15.11-1.55-.23-.39-.34-.47-.85-.18-1.25 1.83-2.57 3.25-5.35 3.34-6.43-1.93.54-7.26 3.79-11.53 6.84-.55.39-1.39.35-1.87-.09-.49-.44-.44-1.11.11-1.5 12.1-8.64 14.2-7.56 14.89-7.2 1.63.84 1.32 3.13-.9 6.82 2.25-.6 4.8-.97 6.19-.14.47.28 1.21.95.94 2.24-.83 3.9-9.26 7.05-10.22 7.4-.18.06-.36.09-.55.09z" fill="#0e2947"/><path d="m219.77 237.15c-.74 0-12.06-.11-19.01-6.35-4.24-3.82-5.9-9.06-4.91-15.59.09-.58.76-.99 1.48-.93.73.07 1.24.6 1.16 1.18-.89 5.9.54 10.58 4.26 13.92 6.22 5.59 16.83 5.64 17.03 5.64.73 0 1.33.47 1.33 1.06s-.59 1.06-1.32 1.07z" fill="#0e2947"/><path d="m659.15 236.07c.38 0 .75-.13 1.01-.39.1-.1 8.54-11.12 7.3-12.65-.72-.89-1.12-1.38-17.13 5.14-.65.27-.92.91-.58 1.43.33.52 1.14.73 1.78.46 4.69-1.91 9.87-3.91 12.71-4.86-1.69 2.88-5.51 8.44-6.17 9.17-.42.47-.32 1.13.26 1.48.25.15.53.22.82.22z" fill="#0e2947"/><path d="m640.29 240.11s-4.35-16.06 7.04-15.43c15.78.87 32.8 28.88 7.92 41.13s-40.93-3.37-40.93-3.37l13.64-5.8s-13.08-5.24-14.26-11.58c-1.18-6.35 8.88-2.7 8.88-2.7s-14.52-12.09-6.75-14.21 24.46 11.97 24.46 11.97z" fill="#2a7de1"/><path d="m650.62 236.13c.36 0 .71-.04 1.04-.13.67-.18 1.15-.58 1.35-1.12.62-1.7-2.18-4.85-3.91-6.58-.46-.46-1.29-.53-1.86-.17-.57.37-.67 1.03-.21 1.49 1.65 1.65 3.08 3.53 3.37 4.38-1.1-.12-3.29-1.26-4.83-2.41-.54-.4-1.37-.38-1.88.05-.5.43-.47 1.1.06 1.5 1.02.76 4.22 2.98 6.87 2.98z" fill="#0e2947"/><path d="m631.74 256.02c.5 0 .99-.23 1.21-.62.3-.53 0-1.16-.66-1.41-3.12-1.13-8.25-3.72-8.7-5.83-.04-.19-.02-.26-.02-.26.61-.27 3.95.45 6.83 1.55.53.2 1.15.11 1.55-.23.39-.34.47-.85.18-1.25-1.83-2.57-3.25-5.35-3.34-6.43 1.93.54 7.26 3.79 11.53 6.84.55.39 1.39.35 1.87-.09.49-.44.44-1.11-.11-1.5-12.1-8.64-14.2-7.56-14.89-7.2-1.63.84-1.32 3.13.9 6.82-2.25-.6-4.8-.97-6.19-.14-.47.28-1.21.95-.94 2.24.83 3.9 9.26 7.05 10.22 7.4.18.06.36.09.55.09z" fill="#0e2947"/><path d="m640.47 264.66c.74 0 12.06-.11 19.01-6.35 4.24-3.82 5.9-9.06 4.91-15.59-.09-.58-.76-.99-1.48-.93-.73.07-1.24.6-1.16 1.18.89 5.9-.54 10.58-4.26 13.92-6.22 5.59-16.83 5.64-17.03 5.64-.73 0-1.33.47-1.33 1.06s.59 1.06 1.32 1.07z" fill="#0e2947"/><path d="m323.85 205.65h-.01c-1.47-.01-36.09-.37-47.16-11.18-2.95-2.88-3.99-6.24-3.09-10 1.48-6.21 6.31-9.63 13.59-9.63 3.02 0 6.44.6 9.82 1.71-.03-4.72 1.78-10.83 6.23-14.73 3.12-2.74 7.03-3.95 11.51-3.38 14.87 1.89 10.95 41.7 10.45 46.23-.06.55-.64.97-1.32.97zm-36.68-28.68c-6.03 0-9.73 2.66-10.98 7.91-.75 3.15.08 5.85 2.54 8.25 9.18 8.95 37.61 10.21 43.9 10.38.27-2.92.97-11.82.51-20.76-.71-13.68-3.85-21.56-8.83-22.2-3.58-.45-6.58.47-9.13 2.71-4.1 3.61-5.83 9.79-5.49 14.3 3.5 1.46 8.5 4.22 7.91 6.56-.15.6-.79 1.61-3.34 1.72-.03 0-.31.01-.32 0-3.56 0-6.05-2.57-6.75-6.91-3.45-1.27-6.98-1.97-10.01-1.97zm13.01 3.24c.52 1.64 1.59 3.51 3.75 3.51.94-.04 1.15-.16 1.15-.16-.1-.37-1.77-1.83-4.9-3.35z" fill="#0e2947"/><path d="m440.16 201.4s-14.34-9.18-22.98-4.4c-7.16 3.96-25.66 14.24-35.38 38.07-2.06 5.04.63 6.02 24.14 8.78 23.52 2.76 29.81 7.49 29.81 7.49s35.1-2.82 38.08-4.65c2.97-1.84-33.67-45.29-33.67-45.29z" fill="#2a7de1"/><path d="m474.3 242.6s-8.05-22.76-21.64-33.21c-18.77-14.45-33.87-15.2-35.43-7.67-1.57 7.53 34.87 27.84 52.05 43.4 4.39 3.97 6.36.9 5.02-2.51z" fill="#2a7de1" stroke="#061023" stroke-linecap="round" stroke-miterlimit="10" stroke-width="2"/><path d="m500.98 199.04s8.47-11.47 18.5-13.98 17.56 6.63 22.26 13.6 18.19 15.75 20.38 21.52 5.02 13.29-13.48 19.31-52.99 8.28-59.58 8.28-7.21-6.27-6.58-12.54 15.71-31.94 18.5-36.19z" fill="#2a7de1"/><path d="m482.48 235.23s7.23-15.55 13.49-26.09 18.8-23.33 26.33-21.57-1.88 18.81-12.86 29.6c-10.97 10.79-20.38 18.56-23.2 20.57s-3.76-2.51-3.76-2.51z" fill="#2a7de1" stroke="#061023" stroke-linecap="round" stroke-miterlimit="10" stroke-width="2"/><path d="m461.41 237.07s3.54-4.88 10.91-6.88c7.37-2.01 13.95-1.65 15.21 3.44 1.25 5.09-.63 7.85-3.76 9.35-3.14 1.5-15.04 2.67-21.16 2.34s-3.01-6.31-1.19-8.25z" fill="#2a7de1" stroke="#061023" stroke-linecap="round" stroke-miterlimit="10" stroke-width="2"/><path d="m405.7 275.33s16.62 33.86 26.65 86.29l-50.17 19.31s-10.66-29.1-28.22-59.95z" fill="#eab328"/><path d="m405.7 275.33s18.19 38.63 26.65 86.29l118.84-7.02s13.8-41.14 13.17-85.79c0 0-72.43-4.01-158.66 6.52z" fill="#ffc629"/><path d="m382.19 380.94 111.63-8.03 57.38-18.31-118.84 7.02z" fill="#ffc629"/><path d="m336.41 297.41s5.33 16.56 9.09 30.73c0 0 52.37-47.28 60.2-52.8l-7.84-31.86s-28.22 32.36-61.46 53.93z" fill="#eab328"/><path d="m352.64 285.81s3 16.9 11.74 25.38l21.44-19.02s-4.48-15.01-10.61-25.66c0 0-18.02 15.84-22.57 19.3z" fill="#2577ba"/><path d="m369.23 307.52s18.86 27.18 31.09 66.44l11.94-4.6s-16.04-51.3-30.08-73.99l-12.96 12.15z" fill="#2577ba"/><path d="m397.87 243.48 7.84 31.86s74-9.53 169.64-7.27c0 0 4.7-25.09 6.9-30.1 0 0-68.36-3.51-184.38 5.52z" fill="#ffc629"/><path d="m471.36 238.98s7.9 10.83 5.69 30.52c0 0 26.92-1.34 43.95-1.55 0 0 3.88-16.97-5.01-30.67l-44.62 1.7z" fill="#2a7de1"/><path d="m485.05 358.51s8.17-45.75-2.75-89.43l32.7-1.02s9.23 55.13-2.92 88.85z" fill="#2a7de1"/><path d="m353.97 320.99 51.74-45.65s118.86-10.28 158.66-6.52" fill="none" stroke="#061023" stroke-linecap="round" stroke-miterlimit="10" stroke-width="2"/><path d="m397.87 243.48 7.84 31.86s17.37 25.54 26.65 86.29" fill="none" stroke="#061023" stroke-linecap="round" stroke-miterlimit="10" stroke-width="2"/><path d="m382.19 380.94 50.17-19.32 120.27-7.02" fill="none" stroke="#061023" stroke-linecap="round" stroke-miterlimit="10" stroke-width="2"/><path d="m458.98 239.56 66.04-2.27" fill="none" stroke="#061023" stroke-linecap="round" stroke-miterlimit="10" stroke-width="2"/></svg>