<svg viewBox="0 0 941 815" xmlns="http://www.w3.org/2000/svg" xmlns:xlink="http://www.w3.org/1999/xlink"><clipPath id="a"><path d="m0 0h941v815h-941z"/></clipPath><g style="clip-path:url(#a);opacity:.36;fill:none;stroke:#ffc629;stroke-miterlimit:10;stroke-width:3"><ellipse cx="480.96" cy="367.06" opacity=".9" rx="65.11" ry="31.81"/><ellipse cx="480.96" cy="367.06" opacity=".8" rx="96.43" ry="47.11"/><ellipse cx="480.96" cy="367.06" opacity=".7" rx="128.03" ry="62.55"/><ellipse cx="480.96" cy="367.06" opacity=".6" rx="164" ry="80.12"/><ellipse cx="480.96" cy="367.06" opacity=".6" rx="202.95" ry="99.14"/><ellipse cx="480.96" cy="367.06" opacity=".5" rx="259.97" ry="127"/><ellipse cx="480.96" cy="367.06" opacity=".4" rx="320.37" ry="156.51"/><ellipse cx="480.96" cy="367.06" opacity=".3" rx="410.38" ry="200.48"/></g><path d="m462.26 406.62s-114.2-50.41-61.92-71.92 82.55 5.38 82.55 5.38 34.4-22.85 72.92-2.69c38.53 20.16-77.05 78.64-93.56 69.23z" fill="#ffc629"/><path d="m213.71 276c-.8 0-1.44-.32-1.44-.71l.14-11.87c0-.39.65-.7 1.44-.7.8 0 1.44.32 1.44.71l-.14 11.87c0 .39-.65.7-1.44.7z" fill="#0e2947"/><path d="m203.91 273.41c-.45 0-.9-.1-1.18-.3-.46-.32-.3-.76.36-.98l20.07-6.83c.65-.22 1.55-.15 2.01.17s.3.76-.36.98l-20.07 6.83c-.25.09-.54.13-.83.13z" fill="#0e2947"/><path d="m221.53 273.91c-.38 0-.76-.07-1.05-.22l-15.17-7.83c-.55-.28-.52-.73.06-1s1.49-.25 2.04.03l15.17 7.83c.55.28.52.73-.06 1-.28.13-.64.19-.99.19z" fill="#0e2947"/><path d="m201.17 269.94c-.79 0-1.44-.31-1.44-.7s.63-.71 1.43-.71l23.37-.11c.8 0 1.44.31 1.45.7 0 .39-.63.71-1.43.71l-23.37.11z" fill="#0e2947"/><path d="m787.37 296.69c-.8 0-1.44-.32-1.44-.71l.14-11.87c0-.39.65-.7 1.44-.7.8 0 1.44.32 1.44.71l-.14 11.87c0 .39-.65.7-1.44.7z" fill="#0e2947"/><path d="m777.57 294.1c-.45 0-.9-.1-1.18-.3-.46-.32-.3-.76.36-.98l20.07-6.83c.65-.22 1.55-.15 2.01.17s.3.76-.36.98l-20.07 6.83c-.25.09-.54.13-.83.13z" fill="#0e2947"/><path d="m795.19 294.6c-.38 0-.76-.07-1.05-.22l-15.17-7.83c-.55-.28-.52-.73.06-1s1.49-.25 2.04.03l15.17 7.83c.55.28.52.73-.06 1-.28.13-.64.19-.99.19z" fill="#0e2947"/><path d="m774.83 290.63c-.79 0-1.44-.31-1.44-.7s.63-.71 1.43-.71l23.37-.11c.8 0 1.44.31 1.45.7 0 .39-.63.71-1.43.71l-23.37.11z" fill="#0e2947"/><path d="m777.36 382.29h-.04c-5.5-.01-9.96-2.21-9.94-4.9.02-2.68 4.5-4.86 9.98-4.86 2.71 0 5.21.52 7.09 1.44s2.9 2.15 2.89 3.45c-.03 2.68-4.51 4.86-9.99 4.86zm.03-8.34c-3.93 0-7.11 1.55-7.13 3.45-.02 1.91 3.15 3.47 7.06 3.48l.03.71v-.71c3.89 0 7.08-1.55 7.1-3.45 0-.93-.72-1.8-2.06-2.45-1.33-.66-3.11-1.02-5.01-1.03z" fill="#0e2947"/><path d="m196.77 367.16h-.04c-5.5-.01-9.96-2.21-9.94-4.9.02-2.68 4.5-4.86 9.98-4.86 2.71 0 5.21.52 7.09 1.44s2.9 2.15 2.89 3.45c-.03 2.68-4.51 4.86-9.99 4.86zm.03-8.34c-3.93 0-7.11 1.55-7.13 3.45-.02 1.91 3.15 3.47 7.06 3.48l.03.71v-.71c3.89 0 7.08-1.55 7.1-3.45 0-.93-.72-1.8-2.06-2.45-1.33-.66-3.11-1.02-5.01-1.03z" fill="#0e2947"/><path d="m162.74 306.27c-.47 0-.91-.07-1.28-.19-.38-.13-.61-.34-.62-.56 0-.03-.15-3.15-.12-6.87-14.2-2.39-14.34-2.9-14.47-3.4-.07-.26.25-.61.7-.76 1.15-.38 9-1.76 14.09-2.62.63-6.47 2.04-6.99 3.8-6.99.2 0 .6.04.78.08 1.81.38 5.79 2.69 9.05 4.72 6.78-1.02 11.1-1.54 12.86-1.54.95 0 1.6.15 1.95.45.3.26.28.58-.07.86-.13.1-3.05 2.45-6.99 5.39 8.05 5.75 7.17 6.58 6.74 6.98-.34.32-1 .51-1.77.51h-.04c-2.1 0-8.81-.93-13.24-1.58-7.22 4.84-9.73 5.52-11.36 5.52zm.86-7.15c0 2.31.05 4.34.09 5.46 1.13-.43 3.34-1.52 7.48-4.26-2.52-.38-5.08-.79-7.57-1.19zm23.73 1.8v.71-.71s0 0 0 0zm-11.45-1.38c5.41.79 8.75 1.18 10.42 1.32-.51-.69-2.06-2.17-5.61-4.75-1.7 1.25-3.31 2.4-4.8 3.43zm-12.26-1.91c3.06.51 6.25 1.01 9.34 1.47 1.82-1.24 3.82-2.67 5.96-4.25-1.68-1.17-3.49-2.38-5.31-3.54-3.19.49-6.56 1.04-9.77 1.57-.11 1.4-.18 2.99-.21 4.75zm-13.05-2.4c1.74.39 4.9 1.02 10.17 1.92.03-1.36.08-2.62.16-3.77-4.82.82-8.31 1.46-10.33 1.85zm25.97-4.36c1.39.89 2.77 1.81 4.08 2.72 2.17-1.63 3.98-3.04 5.1-3.91-1.6.15-4.37.48-9.17 1.2zm-11.38-4.36c-.33.52-.85 1.8-1.19 4.87 2.56-.42 5.19-.85 7.73-1.24-3.26-2-5.44-3.14-6.54-3.62z" fill="#0e2947"/><path d="m346.71 299.56s43.99-10.54 73.79-7.53 67.42 26.71 58.63 34.14-38.34-12.82-77.54-2.77c-22.82 5.85-49.08 33.51-29.42 47.14s86.13 46.14 80.72 52.25-82.29-12.69-106.71-35.11c-24.41-22.43 64.26 23.99 54.24 25.75-53.48 9.37-75.88-14.62-75.88-14.62s77.07 12.85 59.74 17.09c-46.42 11.34-111-.49-132.89-31.12-18.38-25.7-21.8-75.4-35.36-83.42s67.64-39.76 85.25-34.65c17.61 5.1 45.42 32.86 45.42 32.86z" fill="#e58f4e"/><g fill="#0e2947"><path d="m393.36 413.14c-.22 0-.44-.02-.65-.07-1.99-.49-49.01-12.09-65.19-25.92-16.23-13.87-9.53-30.36-9.24-31.05.16-.38.94-.64 1.7-.55.78.08 1.28.45 1.13.83-.07.17-6.76 16.67 8.92 30.07 15.74 13.46 63.49 25.24 63.97 25.35.71.17 1 .6.65.95-.25.25-.76.39-1.29.39z"/><path d="m366.12 419.05c-.15 0-.3-.01-.45-.03-1.92-.31-47.15-7.65-64.38-22.51-17.11-14.75-19.34-27.28-19.36-27.4-.06-.39.53-.73 1.32-.76.8-.03 1.49.26 1.55.65.02.12 2.21 12.36 18.99 26.82 16.68 14.38 62.31 21.79 62.76 21.86.76.12 1.17.52.92.89-.2.3-.76.49-1.37.49z"/><path d="m435.74 416.1c-.38 0-.76-.07-1.05-.22-6.74-3.46-13.06-5.07-18.81-4.77-6.59.34-10.16 3.14-10.2 3.17-.42.33-1.31.44-1.99.23-.68-.2-.89-.64-.48-.97.17-.14 4.36-3.42 12.36-3.83 6.68-.35 13.81 1.4 21.2 5.19.55.28.53.73-.05 1-.28.13-.64.19-1 .19z"/><path d="m357.04 398.35c-.65 0-1.24-.21-1.4-.53-.19-.38.27-.76 1.05-.86.11-.02 11.48-1.48 16.17-6.98.31-.36 1.16-.52 1.89-.38.74.15 1.08.56.78.92-5.26 6.17-17.61 7.74-18.14 7.81-.12.01-.23.02-.35.02z"/><path d="m347.96 393.42c-.53 0-1.04-.14-1.29-.39-.36-.35-.07-.77.65-.95 5.42-1.32 19.64-5.58 20.4-9.3.08-.39.81-.67 1.58-.63.79.04 1.37.38 1.29.77-1.07 5.26-21.13 10.21-21.98 10.42-.21.05-.43.07-.65.07z"/><path d="m464 319.48c-.41 0-.81-.08-1.1-.25-7.71-4.4-11.31-8.33-10.7-11.7.5-2.74 3.69-4.04 3.82-4.09.61-.25 1.53-.2 2.03.1s.41.74-.19.99c-.12.05-2.44 1.04-2.79 3.18-.33 2.04 1.14 5.53 10.03 10.6.52.3.45.74-.16.99-.27.11-.61.17-.94.17z"/><path d="m421.62 304.69c-.66 0-1.25-.22-1.4-.54-4.18-8.66 2.13-11.87 2.4-12 .56-.28 1.48-.28 2.04 0s.56.72.01.99c-.08.04-5.39 2.9-1.64 10.68.18.38-.3.76-1.07.85-.11.01-.22.02-.33.02z"/><path d="m409.51 304.2c-.54 0-1.06-.15-1.31-.41-8.51-8.84 3.44-12.69 3.56-12.73.67-.21 1.56-.11 1.99.22s.23.76-.44.97c-.45.14-9.88 3.28-2.5 10.94.34.35.03.77-.69.94-.2.05-.41.07-.61.07z"/><path d="m314.66 402.29c-.56 0-1.09-.16-1.33-.43-.31-.36.03-.77.76-.93 5.26-1.1 14.09-3.38 15.39-4.81.33-.36 1.18-.51 1.91-.36.73.16 1.06.57.73.93-2.18 2.4-15.4 5.22-16.89 5.54-.19.04-.38.06-.57.06z"/><path d="m322.42 407.03c-.44 0-.84-.03-1.2-.1-.74-.14-1.13-.54-.84-.91.28-.37 1.11-.55 1.86-.41 1.88.35 9.64-2.32 15.67-5.04.58-.26 1.5-.25 2.04.04s.5.73-.08 1c-2.97 1.34-12.43 5.42-17.44 5.42z"/><path d="m282.87 406.73c-.74 0-1.36-.28-1.44-.64-.07-.39.51-.73 1.31-.77.1 0 10.31-.5 12.95-3.29.34-.35 1.19-.51 1.92-.34.72.16 1.04.58.7.94-3.34 3.53-14.82 4.08-15.31 4.1-.04 0-.09 0-.13 0z"/><path d="m291.96 411.41c-.6 0-1.16-.18-1.36-.47-.26-.37.14-.77.89-.9 3.05-.52 11.3-2.26 12.75-4.03.3-.36 1.13-.54 1.88-.39.74.14 1.1.55.8.92-2.2 2.69-13.23 4.63-14.49 4.84-.16.03-.32.04-.47.04z"/><path d="m243.34 323.47c-.52 0-1.03-.14-1.29-.39-.85-.82-4.97-5.03-2.04-6.8.5-.3 1.41-.35 2.03-.11s.72.69.22.99c-1.3.79.65 3.62 2.37 5.28.36.35.08.77-.64.95-.21.05-.43.08-.65.08z"/><path d="m245.17 334.57c-.52 0-1.03-.14-1.29-.39-.85-.82-4.97-5.03-2.04-6.8.5-.31 1.41-.35 2.03-.11s.72.69.22.99c-1.3.79.65 3.62 2.37 5.28.36.35.08.77-.64.95-.21.05-.43.08-.65.08z"/><path d="m254.33 331.02c-.52 0-1.03-.14-1.29-.39-.85-.82-4.97-5.03-2.04-6.8.5-.31 1.41-.35 2.03-.11s.72.69.22.99c-1.3.79.65 3.62 2.37 5.28.36.35.08.77-.64.95-.21.05-.43.08-.65.08z"/><path d="m253.03 320.51c-.53 0-1.03-.14-1.29-.39-.85-.82-4.97-5.03-2.04-6.8.5-.3 1.41-.35 2.03-.11s.72.69.22.99c-1.3.79.65 3.62 2.37 5.28.36.35.07.77-.64.95-.21.05-.43.08-.65.08z"/><path d="m242.14 312.17c-.52 0-1.03-.14-1.29-.39-.85-.82-4.97-5.03-2.04-6.8.5-.31 1.42-.35 2.03-.11.62.25.72.69.22.99-1.3.79.64 3.62 2.37 5.28.36.35.08.77-.64.95-.21.05-.43.08-.65.08z"/><path d="m252.72 341.79c-.52 0-1.03-.14-1.29-.39-.85-.82-4.97-5.03-2.04-6.8.5-.3 1.41-.35 2.03-.11s.72.69.22.99c-1.3.79.65 3.62 2.37 5.28.36.35.08.77-.64.95-.21.05-.43.08-.65.08z"/></g><path d="m653.09 317.24s-35.64-16.42-65.92-17.86-80.58 15.76-76.69 24.13 44.39-6.7 75.74 8.56c18.26 8.89 26.58 39.11-.46 49.28s-110.23 31.62-108.77 38.24 86.29-.22 123.2-18.11-75.92 13.62-67.41 16.75c45.41 16.68 81.34-2.99 81.34-2.99s-81.41 1.13-67.41 7.68c37.47 17.54 106.32 15.58 145.79-10.51 33.12-21.89 66.5-68.86 84.31-74.57 17.81-5.7-40.52-47.76-60.43-45.43-19.92 2.33-63.3 24.82-63.3 24.82z" fill="#e58f4e"/><path d="m540.14 419.02c-.69 0-1.31-.25-1.42-.59-.13-.38.4-.75 1.19-.81.53-.04 53.28-4.39 76.47-14.97 23.09-10.53 26.7-27.27 26.74-27.43.08-.39.8-.67 1.58-.63.79.04 1.37.38 1.3.77-.14.71-3.74 17.42-27.65 28.33-23.83 10.87-75.77 15.15-77.97 15.33-.08 0-.16 0-.24 0z" fill="#0e2947"/><path d="m562.58 428.61c-.79 0-1.43-.31-1.44-.69-.01-.39.63-.71 1.42-.72.49 0 48.56-.48 73.2-11.8 24.83-11.41 34.3-22.76 34.39-22.87.3-.36 1.14-.54 1.88-.39.74.14 1.1.55.8.92-.09.12-9.8 11.76-35.09 23.38-25.46 11.7-73.12 12.17-75.13 12.19h-.02z" fill="#0e2947"/><path d="m528.64 418.83c-.64 0-1.23-.21-1.4-.53-.02-.03-1.78-3.24-7.85-4.51-5.28-1.11-12.29-.49-20.82 1.84-.69.19-1.58.07-1.97-.27s-.14-.77.56-.96c9.36-2.56 17.23-3.19 23.4-1.9 7.38 1.55 9.4 5.29 9.48 5.45.2.38-.27.76-1.04.86-.12.02-.24.02-.36.02z" fill="#0e2947"/><path d="m583.8 410.15c-.26 0-.52-.03-.75-.1-.46-.14-11.3-3.42-12.59-10.08-.07-.39.51-.73 1.3-.77.74-.02 1.5.25 1.57.64 1.15 5.96 11.12 8.98 11.22 9.01.68.2.9.64.49.97-.27.22-.75.34-1.24.34z" fill="#0e2947"/><path d="m595.46 406.75c-.36 0-.72-.06-1-.2-.69-.32-16.84-7.96-14.68-13.13.16-.38.93-.63 1.7-.55.78.08 1.29.45 1.13.83-1.53 3.67 9.48 9.78 13.85 11.83.58.27.59.72.05 1-.28.14-.66.22-1.04.22z" fill="#0e2947"/><path d="m529.42 319.34c-.48 0-.95-.12-1.22-.33-.43-.33-.22-.77.45-.97 11.57-3.56 15.09-6.68 16-8.68.97-2.11-.67-3.39-.74-3.45-.43-.33-.24-.76.43-.97s1.55-.12 1.99.2c.1.07 2.35 1.78 1.17 4.46-1.46 3.3-7.28 6.54-17.31 9.63-.24.07-.5.11-.77.11z" fill="#0e2947"/><path d="m578.86 311.35c-.25 0-.5-.03-.73-.1-.69-.2-.92-.63-.51-.97 8.43-7 4.94-10.4 4.91-10.43-.37-.34-.1-.77.6-.95s1.58-.05 1.95.29c.18.17 4.26 4.14-4.97 11.81-.27.22-.75.35-1.24.35z" fill="#0e2947"/><path d="m590.72 312.63c-.35 0-.7-.06-.97-.18-.59-.26-.63-.71-.09-1 11.8-6.31 4.32-10.76 4.24-10.81-.52-.3-.44-.74.17-.99s1.52-.22 2.03.08c.1.05 9.18 5.46-4.31 12.67-.28.15-.67.23-1.07.23z" fill="#0e2947"/><path d="m621.89 420.04c-.33 0-.67-.06-.94-.17-1.24-.52-12.15-5.12-12.78-7.73-.1-.39.47-.74 1.26-.78.78-.06 1.51.23 1.6.62.38 1.55 7.43 5.01 11.79 6.82.61.25.68.7.16.99-.28.16-.69.25-1.1.25z" fill="#0e2947"/><path d="m612.23 423.5c-4.82 0-12.24-5.94-14.42-7.78-.4-.34-.16-.77.52-.96.68-.2 1.57-.08 1.97.26 4.07 3.44 9.78 7.07 11.87 7.07h.13c.76 0 1.4.29 1.44.66.05.39-.56.72-1.36.75-.05 0-.11 0-.16 0z" fill="#0e2947"/><path d="m649.56 428.88c-.18 0-.37-.02-.55-.05-.45-.09-11.09-2.28-12.13-6.13-.1-.39.45-.74 1.24-.79.76-.06 1.51.22 1.62.61.83 3.06 10.27 5 10.37 5.01.74.15 1.09.56.78.92-.23.27-.77.44-1.33.44z" fill="#0e2947"/><path d="m638.05 432.04c-.3 0-.6-.04-.86-.14-1.07-.38-10.43-3.84-10.9-6.72-.06-.39.53-.73 1.32-.76.79-.02 1.49.26 1.55.65.31 1.91 7.14 4.76 9.74 5.7.64.23.78.67.3.99-.28.19-.72.29-1.16.29z" fill="#0e2947"/><path d="m735.1 352.09c-.59 0-1.15-.18-1.36-.47-.27-.37.13-.77.88-.9 1.96-.34 3.35-3.24 3.67-5.1.07-.39.83-.67 1.56-.64.8.03 1.38.37 1.32.76-.16.92-1.18 5.55-5.59 6.31-.16.03-.32.04-.48.04z" fill="#0e2947"/><path d="m745.48 342.18c-.59 0-1.15-.18-1.36-.47-.27-.37.13-.77.88-.9 1.95-.34 3.34-3.24 3.67-5.1.07-.39.8-.66 1.56-.64.79.03 1.38.37 1.31.76-.16.92-1.18 5.55-5.59 6.31-.16.03-.32.04-.48.04z" fill="#0e2947"/><path d="m733.88 342.84c-.59 0-1.15-.18-1.36-.47-.27-.37.13-.77.88-.9 1.95-.34 3.34-3.24 3.67-5.1.07-.39.78-.66 1.56-.64.79.03 1.38.37 1.31.76-.16.92-1.18 5.55-5.58 6.31-.16.03-.32.04-.48.04z" fill="#0e2947"/><path d="m723.66 352.12c-.6 0-1.15-.18-1.36-.47-.27-.37.13-.77.88-.9 1.95-.34 3.34-3.24 3.67-5.1.07-.39.8-.66 1.56-.64.79.03 1.38.37 1.31.76-.16.92-1.18 5.55-5.59 6.31-.16.03-.32.04-.48.04z" fill="#0e2947"/><path d="m723.96 362.01c-.59 0-1.15-.18-1.36-.47-.27-.37.13-.77.88-.9 1.95-.34 3.34-3.24 3.67-5.1.07-.39.8-.66 1.56-.64.79.03 1.38.37 1.31.76-.16.92-1.18 5.55-5.59 6.31-.16.03-.32.04-.48.04z" fill="#0e2947"/><path d="m746.84 334.1c-.59 0-1.15-.18-1.36-.47-.27-.37.13-.77.88-.9 1.95-.34 3.34-3.24 3.67-5.1.07-.39.78-.66 1.56-.64.79.03 1.38.37 1.31.76-.16.92-1.19 5.55-5.59 6.31-.16.03-.32.04-.48.04z" fill="#0e2947"/><path d="m128.52 323.96s49.14-9.91 56.73-7.69 15.82 21.96 15.82 21.96 19.87 2.9 15.58 4.99c-2.43 1.19-63.44 12.72-72.54 9.75-9.1-2.96-27.72-26.79-15.58-29.02z" fill="#2a7de1"/><path d="m171.36 342.99s-34.3-6.06-30.19-11.42c5.84-7.61 23.37.24 23.37.24s-1.95-12.61 11.68-7.61-1.95 19.27-4.87 18.79z" fill="#fdffff"/><path d="m790.77 401.55s-49.14-9.91-56.73-7.69-15.82 21.96-15.82 21.96-19.87 2.9-15.58 4.99c2.43 1.19 63.44 12.72 72.54 9.75s27.72-26.79 15.58-29.02z" fill="#2a7de1"/><path d="m747.93 420.57s34.3-6.06 30.19-11.42c-5.84-7.61-23.37.24-23.37.24s1.95-12.61-11.68-7.61 1.95 19.27 4.87 18.79z" fill="#fdffff"/></svg>