<?xml version="1.0" encoding="UTF-8"?>
<svg id="Layer_2" data-name="Layer 2" xmlns="http://www.w3.org/2000/svg" viewBox="0 0 33.5 43.5">
  <defs>
    <style>
      .cls-1 {
        fill: none;
        stroke: #2a7de1;
        stroke-linecap: round;
        stroke-linejoin: round;
        stroke-width: 1.5px;
      }
    </style>
  </defs>
  <g id="Layer_1-2" data-name="Layer 1">
    <g>
      <path class="cls-1" d="M20.75,16.75h-3.39c-.98.17-1.77-.62-1.77-1.6h0c0-.63.33-1.18.82-1.66.51-.5,1.21-.74,1.92-.74h3.92c.71,0,1.41.25,1.92.74.49.48.82,1.03.82,1.66h0c0,.48-.19.92-.51,1.24"/>
      <path class="cls-1" d="M5.42,27.38c.71-.97,1.12-1.78,1.61-2.88.45-1.01,2.26-3.13,3.08-3.95h0l5.25-5.25h0c1.38,1.38,1.38,3.63,0,5.01l-2.23,2.23,2.78,3.06c1.6,1.76,1.53,4.46-.15,6.14h0"/>
      <path class="cls-1" d="M19.09,21.61l9.9-9.9c.69-.69,1.81-.69,2.51,0h0c.69.69.69,1.81,0,2.51l-9.9,9.9"/>
      <path class="cls-1" d="M21.61,24.12l7.73-7.73c.69-.69,1.81-.69,2.51,0h0c.69.69.69,1.81,0,2.51l-7.73,7.73"/>
      <path class="cls-1" d="M16.1,37.92c.87-.71,1.84-1.3,2.85-1.8.86-.42,1.66-.98,2.37-1.69l5.65-5.65,5.25-5.25c.69-.69.69-1.81,0-2.51h0c-.69-.69-1.81-.69-2.51,0l-5.61,5.61"/>
      <path class="cls-1" d="M18.89,11.89c1.22-1.12,2.47-2.3,3.21-3.01,1.23-1.19,2.45-2.63,2.11-4.53-.37-2.08-2.24-3.63-4.35-3.6-2.38.03-4.29,1.97-4.29,4.35,0-2.38-1.9-4.31-4.27-4.35-2.11-.04-3.98,1.5-4.37,3.57-.35,1.9.8,3.24,2.11,4.56,1.24,1.24,5.39,5.03,6.33,5.88"/>
      <polygon class="cls-1" points=".75 30.43 4.62 26.58 16.94 38.9 13.09 42.75 .75 30.43"/>
    </g>
  </g>
</svg>