<svg viewBox="0 0 39.5 35.5" xmlns="http://www.w3.org/2000/svg"><g fill="none" stroke="#2a7de1" stroke-linecap="round" stroke-linejoin="round" stroke-width="1.5"><path d="m31.62 27.22c.55-.05 1.08-.34 1.41-.83l.04-.07c.59-.87.36-2.05-.51-2.64l-7.81-6.93"/><path d="m21.46 20.56 8.6 5.8c.87.59 1.1 1.77.51 2.64l-.05.07c-.59.87-1.77 1.1-2.64.51l-8.66-5.84"/><path d="m19.22 23.75 7.98 5.38c.87.59 1.1 1.77.51 2.64l-.05.07c-.59.87-1.77 1.1-2.64.51l-7.14-4.8"/><path d="m18.97 32.96 1.48 1c.87.59 2.05.36 2.64-.51l.05-.07c.59-.87.36-2.05-.51-2.64l-4.74-3.18"/><path d="m26.05 5.29c-1.62.33-3.18 1.06-4.51 2.2l-1.29 1.1-7.79 6.61c1.39 1.64 3.84 1.84 5.48.45l2.55-2.14 2.59 2.15c2.24 1.84 5.54 1.53 7.39-.71"/><path d="m8.58 27.09 2.65-3.63c.63-.87.44-2.08-.43-2.71-.87-.63-2.08-.44-2.71.43l-2.65 3.63c-.63.87-.44 2.08.43 2.71.87.63 2.08.44 2.71-.43z"/><path d="m11.72 29.38 3.73-5.12c.63-.87.44-2.08-.43-2.71-.87-.63-2.08-.44-2.71.43l-3.73 5.12c-.63.87-.44 2.08.43 2.71.87.63 2.08.44 2.71-.43z"/><path d="m14.86 31.66 2.65-3.63c.63-.87.44-2.08-.43-2.71-.87-.63-2.08-.44-2.71.43l-2.65 3.63c-.63.87-.44 2.08.43 2.71.87.63 2.08.44 2.71-.43z"/><path d="m18 33.95 1.59-2.18c.63-.87.44-2.08-.43-2.71-.87-.63-2.08-.44-2.71.43l-1.59 2.18c-.63.87-.44 2.08.43 2.71.87.63 2.08.44 2.71-.43z"/><path d="m32.85 23.4c3.29-4.32 5.9-8.78 5.9-12.03 0-5.87-4.66-10.62-10.4-10.62-3.57 0-6.72 2.2-8.6 5-1.87-2.8-5.02-5-8.6-5-5.74 0-10.4 4.75-10.4 10.62 0 3.14 2.44 7.41 5.57 11.6"/></g></svg>