<svg viewBox="0 0 35.5 34.09" xmlns="http://www.w3.org/2000/svg"><g fill="none" stroke="#2a7de1" stroke-linecap="round" stroke-linejoin="round" stroke-width="1.5"><path d="m25.75 6.34h7c1.1 0 2 .9 2 2v23c0 1.1-.9 2-2 2h-30c-1.1 0-2-.9-2-2v-23c0-1.1.9-2 2-2h8"/><path d="m32.75 14.34h-30"/><path d="m23.75 10.34h-11"/><path d="m14.75 8.08c-.63-.77-1-1.76-1-2.83 0-2.49 2.01-4.5 4.5-4.5s4.5 2.01 4.5 4.5c0 1.01-.34 1.95-.9 2.7"/><path d="m23.15 19.92c-1.55-.91-3.07-.66-4.12.19-.24.19-.58.19-.82 0-1.01-.82-2.47-1.07-3.96-.27-.31.17-.58.41-.78.69-3.14 4.28 3.44 8 4.88 8.75.18.09.38.09.56 0 1.37-.65 7.13-3.69 5.39-8.02-.23-.56-.64-1.05-1.16-1.35z"/></g></svg>