<?xml version="1.0" encoding="UTF-8"?>
<svg id="Layer_2" data-name="Layer 2" xmlns="http://www.w3.org/2000/svg" viewBox="0 0 73.41 70.94">
  <defs>
    <style>
      .cls-1 {
        fill: none;
        stroke: #fff;
        stroke-linecap: round;
        stroke-linejoin: round;
        stroke-width: 4px;
      }
    </style>
  </defs>
  <g id="Layer_1-2" data-name="Layer 1">
    <g>
      <path class="cls-1" d="M27.91,42.05c2.98,2.8,5.96,5.6,8.95,8.39,2.98-2.8,5.96-5.6,8.95-8.39,2.28-2.14,4.65-4.4,5.69-7.36.87-2.46.68-5.33-.72-7.54-1.4-2.21-4.05-3.63-6.64-3.33-1.89.21-3.6,1.26-4.95,2.6-.88.87-1.63,1.86-2.32,2.89-.7-1.03-1.44-2.02-2.32-2.89-1.35-1.33-3.06-2.38-4.95-2.6-2.6-.29-5.24,1.13-6.64,3.33-1.4,2.21-1.59,5.07-.72,7.54,1.04,2.95,3.4,5.21,5.69,7.36Z"/>
      <path class="cls-1" d="M7.82,42.52c-.48-2.12-.73-4.32-.73-6.58,0-16.34,13.24-29.58,29.58-29.58s29.58,13.24,29.58,29.58-13.24,29.58-29.58,29.58c-3.39,0-6.64-.57-9.68-1.62"/>
      <g>
        <path class="cls-1" d="M13.18,44.85s1.76,12.9-11.18,12"/>
        <path class="cls-1" d="M13.34,44.85s-1.76,12.9,11.18,12"/>
        <path class="cls-1" d="M13.18,68.94s1.76-12.9-11.18-12"/>
        <path class="cls-1" d="M13.34,68.94s-1.76-12.9,11.18-12"/>
      </g>
      <g>
        <path class="cls-1" d="M66.21,2s.81,5.91-5.12,5.5"/>
        <path class="cls-1" d="M66.28,2s-.81,5.91,5.12,5.5"/>
        <path class="cls-1" d="M66.21,13.04s.81-5.91-5.12-5.5"/>
        <path class="cls-1" d="M66.28,13.04s-.81-5.91,5.12-5.5"/>
      </g>
    </g>
  </g>
</svg>