<svg viewBox="0 0 221.36 237.74" xmlns="http://www.w3.org/2000/svg"><path d="m57.2 237.74c-1.24 0-2.3-.05-3.16-.15-2.48-.28-5.85-.96-6.6-3.73-1.11-4.06 4.53-8.52 14.59-16.03 6.61-4.94 14.09-10.53 15.58-14.25-.51-1.19-5.57-1.91-9.62-2.48-16.6-2.34-47.49-6.7-58.25-44.39-.4-1.39-.92-3.05-1.51-4.94-7.16-22.77-26.19-83.25 38.72-117.52 28.77-15.18 74.45-16.09 76.37-16.12 38.15-.7 65.62 10.67 81.84 33.74 25.43 36.18 15.51 91.97 6.7 116.41-16.96 47.12-128.98 69.45-154.65 69.45zm-6.08-4.86s.58.62 3.34.92c.75.08 1.66.12 2.74.12 24.24 0 135-22.3 151.06-66.92 8.57-23.8 18.29-78.03-6.24-112.93-15.44-21.97-41.73-32.81-78.65-32.11-.47 0-46.71.93-74.66 15.68-62.1 32.78-44.41 88.99-36.86 113 .61 1.93 1.14 3.62 1.54 5.04 10.09 35.3 38.27 39.28 55.11 41.65 6.87.97 11.02 1.56 12.5 4.1.42.73.79 1.94.14 3.57-1.88 4.71-9.15 10.14-16.84 15.89-5 3.74-13.38 10.01-13.19 11.99z" fill="#16437b"/><path d="m42.45 77.54s47.35-9.95 55.44-21.01c8.1-11.06-4.65-53.96 6.48-56.36s39.66 19.64 29.77 58.71c0 0 24.58-3.33 28.75 4.94 6.09 12.08-1.4 25.91-1.4 25.91s13.02-1.8 15.7 5.35c5.46 14.54-8.2 26.79-8.2 26.79s12.82 5.17 13.8 12.74c2.64 20.39-43.19 45.39-75.27 42.4s-27.99-13.76-47.78-8.34c-19.79 5.43-27.65-66.22-17.3-91.15z" fill="#e58f4e"/><g fill="#16437b"><path d="m101.66 37.73c-.8 0-1.54-.51-1.81-1.3-.33-1 .21-2.08 1.21-2.41 3.16-1.05 5.19-2.82 6.18-5.39 2.69-6.94-2.95-17.19-3.01-17.3-.51-.92-.18-2.08.74-2.6.92-.51 2.09-.18 2.6.74.27.48 6.57 11.94 3.24 20.54-1.41 3.64-4.28 6.21-8.53 7.63-.2.07-.4.1-.6.1z"/><path d="m148.1 94.68c-1.87 0-3.58-.21-4.95-.51-1.03-.22-1.68-1.24-1.46-2.27s1.22-1.68 2.27-1.46c.55.12 13.49 2.78 17.1-7.25.36-.99 1.44-1.52 2.44-1.15.99.36 1.51 1.45 1.15 2.44-2.9 8.06-10.53 10.2-16.56 10.2z"/><path d="m150.08 127.66c-.42 0-.74 0-.92-.01-1.05-.03-1.88-.91-1.85-1.96s.82-1.87 1.96-1.86c4.06.11 16.02-.73 17.93-5.82.37-.99 1.46-1.48 2.46-1.12.99.37 1.49 1.47 1.12 2.46-2.9 7.74-16.69 8.31-20.7 8.31z"/></g></svg>